<?xml version="1.0" encoding="UTF-8" standalone="no"?>
<!-- Created with Inkscape (http://www.inkscape.org/) -->

<svg
   xmlns:dc="http://purl.org/dc/elements/1.1/"
   xmlns:cc="http://creativecommons.org/ns#"
   xmlns:rdf="http://www.w3.org/1999/02/22-rdf-syntax-ns#"
   xmlns:svg="http://www.w3.org/2000/svg"
   xmlns="http://www.w3.org/2000/svg"
   xmlns:sodipodi="http://sodipodi.sourceforge.net/DTD/sodipodi-0.dtd"
   xmlns:inkscape="http://www.inkscape.org/namespaces/inkscape"
   width="150"
   height="100"
   viewBox="0 0 39.687502 26.458334"
   version="1.1"
   id="svg6793"
   inkscape:version="0.92.1 r15371"
   sodipodi:docname="boton_opcional_copy.svg">
  <defs
     id="defs6787" />
  <sodipodi:namedview
     id="base"
     pagecolor="#ffffff"
     bordercolor="#666666"
     borderopacity="1.0"
     inkscape:pageopacity="0.0"
     inkscape:pageshadow="2"
     inkscape:zoom="1.979899"
     inkscape:cx="53.982813"
     inkscape:cy="103.08004"
     inkscape:document-units="mm"
     inkscape:current-layer="layer1"
     showgrid="false"
     units="px"
     inkscape:window-width="1920"
     inkscape:window-height="1051"
     inkscape:window-x="-9"
     inkscape:window-y="-9"
     inkscape:window-maximized="1" />
  <metadata
     id="metadata6790">
    <rdf:RDF>
      <cc:Work
         rdf:about="">
        <dc:format>image/svg+xml</dc:format>
        <dc:type
           rdf:resource="http://purl.org/dc/dcmitype/StillImage" />
        <dc:title></dc:title>
      </cc:Work>
    </rdf:RDF>
  </metadata>
  <g
     inkscape:label="Layer 1"
     inkscape:groupmode="layer"
     id="layer1"
     transform="translate(0,-270.54165)">
    <g
       transform="matrix(0.05189465,0,0,0.05189465,-920.30488,-123.42207)"
       style="display:inline"
       id="g6559">
      <path
         inkscape:connector-curvature="0"
         id="path840-4-7"
         style="display:inline;fill:#f9d47a;fill-opacity:1;fill-rule:nonzero;stroke:none;stroke-width:2.24768329"
         d="m 18479.123,7958.2916 c 0,68.1655 -55.458,123.6226 -123.623,123.6226 h -473.412 c -68.161,0 -123.623,-55.4571 -123.623,-123.6226 v -206.7509 c 0,-68.1677 55.462,-123.6227 123.623,-123.6227 h 473.412 c 68.165,0 123.623,55.455 123.623,123.6227 v 206.7509" />
      <path
         inkscape:connector-curvature="0"
         id="path842-1-9"
         style="display:inline;fill:#a13028;fill-opacity:1;fill-rule:nonzero;stroke:none;stroke-width:2.24768329"
         d="m 18355.5,7644.7757 c 58.87,0 106.764,47.8937 106.764,106.765 v 206.7509 c 0,58.8691 -47.894,106.765 -106.764,106.765 h -473.412 c -58.86,0 -106.764,-47.8959 -106.764,-106.765 v -206.7509 c 0,-58.8713 47.904,-106.765 106.764,-106.765 z m -613.892,106.765 v 206.7509 c 0,77.5833 62.908,140.4802 140.48,140.4802 h 473.412 c 77.58,0 140.48,-62.8969 140.48,-140.4802 v -206.7509 c 0,-77.5811 -62.9,-140.4803 -140.48,-140.4803 h -473.412 c -77.572,0 -140.48,62.8992 -140.48,140.4803" />
      <path
         inkscape:connector-curvature="0"
         id="path844-3-9"
         style="display:inline;fill:#a13028;fill-opacity:1;fill-rule:nonzero;stroke:none;stroke-width:2.24768329"
         d="m 18445.825,7972.162 c -0.766,-3.7266 -3.1,-6.6958 -6.3,-8.1995 -3.158,1.1081 -6.026,3.2974 -7.721,6.0553 0.793,3.1175 2.904,5.9743 5.587,7.9679 3.505,-0.4787 6.588,-2.5196 8.434,-5.8237" />
      <path
         inkscape:connector-curvature="0"
         id="path846-5-6"
         style="display:inline;fill:#a13028;fill-opacity:1;fill-rule:nonzero;stroke:none;stroke-width:2.24768329"
         d="m 18440.053,7992.9015 c 0.179,-3.783 -1.461,-7.2511 -4.16,-9.4382 -3.387,0.3104 -6.622,1.787 -8.962,4.0503 0.07,3.2256 1.43,6.4981 3.563,9.0672 3.52,0.3619 7.006,-0.8945 9.559,-3.6793" />
      <path
         inkscape:connector-curvature="0"
         id="path848-4-6"
         style="display:inline;fill:#a13028;fill-opacity:1;fill-rule:nonzero;stroke:none;stroke-width:2.24768329"
         d="m 18429.583,8011.701 c 1.064,-3.6299 0.286,-7.386 -1.831,-10.155 -3.356,-0.4855 -6.849,0.2022 -9.665,1.8452 -0.694,3.1535 -0.135,6.6578 1.353,9.6495 3.335,1.1754 7.02,0.7663 10.143,-1.3397" />
      <path
         inkscape:connector-curvature="0"
         id="path850-3-5"
         style="display:inline;fill:#a13028;fill-opacity:1;fill-rule:nonzero;stroke:none;stroke-width:2.24768329"
         d="m 18415.037,8027.5314 c 1.881,-3.2771 2,-7.1071 0.57,-10.301 -3.139,-1.2408 -6.698,-1.3913 -9.824,-0.4496 -1.405,2.9107 -1.666,6.4531 -0.922,9.7078 2.976,1.9194 6.656,2.3735 10.176,1.0428" />
      <path
         inkscape:connector-curvature="0"
         id="path852-2-4"
         style="display:inline;fill:#a13028;fill-opacity:1;fill-rule:nonzero;stroke:none;stroke-width:2.24768329"
         d="m 18397.207,8039.5589 c 2.584,-2.776 3.62,-6.415 2.95,-9.8899 -2.744,-1.906 -6.203,-2.9333 -9.444,-2.722 -2.026,2.5354 -3.136,5.8486 -3.159,9.229 2.428,2.5198 5.932,3.884 9.653,3.3829" />
      <path
         inkscape:connector-curvature="0"
         id="path854-0-9"
         style="display:inline;fill:#a13028;fill-opacity:1;fill-rule:nonzero;stroke:none;stroke-width:2.24768329"
         d="m 18377.044,8047.0818 c 3.158,-2.1038 5.025,-5.3921 5.192,-8.9256 -2.222,-2.4949 -5.342,-4.3132 -8.536,-4.8572 -2.573,1.9757 -4.431,4.9179 -5.243,8.2309 1.757,2.9872 4.84,5.1585 8.587,5.5519" />
      <path
         inkscape:connector-curvature="0"
         id="path856-7-0"
         style="display:inline;fill:#a13028;fill-opacity:1;fill-rule:nonzero;stroke:none;stroke-width:2.24768329"
         d="m 18355.682,8049.6644 c 3.561,-1.3238 6.141,-4.0863 7.136,-7.4736 -1.574,-2.9557 -4.177,-5.4529 -7.165,-6.7093 -3.226,1.2992 -5.74,3.9469 -7.029,7.0465 1.304,3.2703 3.779,5.8574 7.058,7.1364" />
      <path
         inkscape:connector-curvature="0"
         id="path858-5-2"
         style="display:inline;fill:#a13028;fill-opacity:1;fill-rule:nonzero;stroke:none;stroke-width:2.24768329"
         d="m 18335.777,8049.6688 c 3.273,-1.2878 5.866,-3.8682 7.163,-7.1408 -1.297,-3.095 -3.89,-5.7518 -7.163,-7.042 -3.255,1.2902 -5.748,3.947 -7.045,7.042 1.297,3.2726 3.79,5.853 7.045,7.1408" />
      <path
         inkscape:connector-curvature="0"
         id="path860-3-7"
         style="display:inline;fill:#a13028;fill-opacity:1;fill-rule:nonzero;stroke:none;stroke-width:2.24768329"
         d="m 18315.88,8049.6688 c 3.279,-1.2878 5.871,-3.8682 7.165,-7.1408 -1.294,-3.095 -3.886,-5.7518 -7.165,-7.042 -3.251,1.2902 -5.745,3.947 -7.04,7.042 1.295,3.2726 3.789,5.853 7.04,7.1408" />
      <path
         inkscape:connector-curvature="0"
         id="path862-7-7"
         style="display:inline;fill:#a13028;fill-opacity:1;fill-rule:nonzero;stroke:none;stroke-width:2.24768329"
         d="m 18295.987,8049.6688 c 3.279,-1.2878 5.872,-3.8682 7.166,-7.1408 -1.294,-3.095 -3.887,-5.7518 -7.166,-7.042 -3.251,1.2902 -5.744,3.947 -7.039,7.042 1.295,3.2726 3.788,5.853 7.039,7.1408" />
      <path
         inkscape:connector-curvature="0"
         id="path864-4-8"
         style="display:inline;fill:#a13028;fill-opacity:1;fill-rule:nonzero;stroke:none;stroke-width:2.24768329"
         d="m 18276.095,8049.6688 c 3.276,-1.2878 5.873,-3.8682 7.166,-7.1408 -1.293,-3.095 -3.89,-5.7518 -7.166,-7.042 -3.251,1.2902 -5.747,3.947 -7.042,7.042 1.295,3.2726 3.791,5.853 7.042,7.1408" />
      <path
         inkscape:connector-curvature="0"
         id="path866-9-1"
         style="display:inline;fill:#a13028;fill-opacity:1;fill-rule:nonzero;stroke:none;stroke-width:2.24768329"
         d="m 18256.204,8049.6688 c 3.276,-1.2878 5.866,-3.8682 7.165,-7.1408 -1.299,-3.095 -3.889,-5.7518 -7.165,-7.042 -3.253,1.2902 -5.748,3.947 -7.046,7.042 1.298,3.2726 3.793,5.853 7.046,7.1408" />
      <path
         inkscape:connector-curvature="0"
         id="path868-3-1"
         style="display:inline;fill:#a13028;fill-opacity:1;fill-rule:nonzero;stroke:none;stroke-width:2.24768329"
         d="m 18236.312,8049.6688 c 3.275,-1.2878 5.867,-3.8682 7.165,-7.1408 -1.298,-3.095 -3.89,-5.7518 -7.165,-7.042 -3.253,1.2902 -5.747,3.947 -7.046,7.042 1.299,3.2726 3.793,5.853 7.046,7.1408" />
      <path
         inkscape:connector-curvature="0"
         id="path870-4-3"
         style="display:inline;fill:#a13028;fill-opacity:1;fill-rule:nonzero;stroke:none;stroke-width:2.24768329"
         d="m 18216.417,8049.6688 c 3.278,-1.2878 5.869,-3.8682 7.168,-7.1408 -1.299,-3.095 -3.89,-5.7518 -7.168,-7.042 -3.25,1.2902 -5.744,3.947 -7.043,7.042 1.299,3.2726 3.793,5.853 7.043,7.1408" />
      <path
         inkscape:connector-curvature="0"
         id="path872-3-6"
         style="display:inline;fill:#a13028;fill-opacity:1;fill-rule:nonzero;stroke:none;stroke-width:2.24768329"
         d="m 18196.526,8049.6688 c 3.278,-1.2878 5.869,-3.8682 7.168,-7.1408 -1.299,-3.095 -3.89,-5.7518 -7.168,-7.042 -3.251,1.2902 -5.746,3.947 -7.044,7.042 1.298,3.2726 3.793,5.853 7.044,7.1408" />
      <path
         inkscape:connector-curvature="0"
         id="path874-5-2"
         style="display:inline;fill:#a13028;fill-opacity:1;fill-rule:nonzero;stroke:none;stroke-width:2.24768329"
         d="m 18176.633,8049.6688 c 3.278,-1.2878 5.87,-3.8682 7.168,-7.1408 -1.298,-3.095 -3.89,-5.7518 -7.168,-7.042 -3.25,1.2902 -5.744,3.947 -7.042,7.042 1.298,3.2726 3.792,5.853 7.042,7.1408" />
      <path
         inkscape:connector-curvature="0"
         id="path876-0-4"
         style="display:inline;fill:#a13028;fill-opacity:1;fill-rule:nonzero;stroke:none;stroke-width:2.24768329"
         d="m 18156.741,8049.6688 c 3.277,-1.2878 5.869,-3.8682 7.166,-7.1408 -1.297,-3.095 -3.889,-5.7518 -7.166,-7.042 -3.25,1.2902 -5.747,3.947 -7.044,7.042 1.297,3.2726 3.794,5.853 7.044,7.1408" />
      <path
         inkscape:connector-curvature="0"
         id="path878-9-0"
         style="display:inline;fill:#a13028;fill-opacity:1;fill-rule:nonzero;stroke:none;stroke-width:2.24768329"
         d="m 18136.85,8049.6688 c 3.272,-1.2878 5.869,-3.8682 7.165,-7.1408 -1.296,-3.095 -3.893,-5.7518 -7.165,-7.042 -3.253,1.2902 -5.748,3.947 -7.045,7.042 1.297,3.2726 3.792,5.853 7.045,7.1408" />
      <path
         inkscape:connector-curvature="0"
         id="path880-4-1"
         style="display:inline;fill:#a13028;fill-opacity:1;fill-rule:nonzero;stroke:none;stroke-width:2.24768329"
         d="m 18116.957,8049.6688 c 3.274,-1.2878 5.87,-3.8682 7.166,-7.1408 -1.296,-3.095 -3.892,-5.7518 -7.166,-7.042 -3.252,1.2902 -5.746,3.947 -7.045,7.042 1.299,3.2726 3.793,5.853 7.045,7.1408" />
      <path
         inkscape:connector-curvature="0"
         id="path882-3-3"
         style="display:inline;fill:#a13028;fill-opacity:1;fill-rule:nonzero;stroke:none;stroke-width:2.24768329"
         d="m 18097.052,8049.6688 c 3.287,-1.2878 5.871,-3.8682 7.164,-7.1408 -1.293,-3.095 -3.877,-5.7518 -7.164,-7.042 -3.231,1.2902 -5.731,3.947 -7.024,7.042 1.293,3.2726 3.793,5.853 7.024,7.1408" />
      <path
         inkscape:connector-curvature="0"
         id="path884-5-3"
         style="display:inline;fill:#a13028;fill-opacity:1;fill-rule:nonzero;stroke:none;stroke-width:2.24768329"
         d="m 18077.161,8049.6688 c 3.285,-1.2878 5.871,-3.8682 7.162,-7.1408 -1.291,-3.095 -3.877,-5.7518 -7.162,-7.042 -3.233,1.2902 -5.731,3.947 -7.024,7.042 1.293,3.2726 3.791,5.853 7.024,7.1408" />
      <path
         inkscape:connector-curvature="0"
         id="path886-1-0"
         style="display:inline;fill:#a13028;fill-opacity:1;fill-rule:nonzero;stroke:none;stroke-width:2.24768329"
         d="m 18057.269,8049.6688 c 3.286,-1.2878 5.87,-3.8682 7.163,-7.1408 -1.293,-3.095 -3.877,-5.7518 -7.163,-7.042 -3.232,1.2902 -5.732,3.947 -7.024,7.042 1.292,3.2726 3.792,5.853 7.024,7.1408" />
      <path
         inkscape:connector-curvature="0"
         id="path888-5-3"
         style="display:inline;fill:#a13028;fill-opacity:1;fill-rule:nonzero;stroke:none;stroke-width:2.24768329"
         d="m 18037.375,8049.6688 c 3.288,-1.2878 5.872,-3.8682 7.165,-7.1408 -1.293,-3.095 -3.877,-5.7518 -7.165,-7.042 -3.23,1.2902 -5.73,3.947 -7.024,7.042 1.294,3.2726 3.794,5.853 7.024,7.1408" />
      <path
         inkscape:connector-curvature="0"
         id="path890-7-9"
         style="display:inline;fill:#a13028;fill-opacity:1;fill-rule:nonzero;stroke:none;stroke-width:2.24768329"
         d="m 18017.484,8049.6688 c 3.286,-1.2878 5.872,-3.8682 7.163,-7.1408 -1.291,-3.095 -3.877,-5.7518 -7.163,-7.042 -3.233,1.2902 -5.733,3.947 -7.024,7.042 1.291,3.2726 3.791,5.853 7.024,7.1408" />
      <path
         inkscape:connector-curvature="0"
         id="path892-0-1"
         style="display:inline;fill:#a13028;fill-opacity:1;fill-rule:nonzero;stroke:none;stroke-width:2.24768329"
         d="m 17997.592,8049.6688 c 3.287,-1.2878 5.871,-3.8682 7.164,-7.1408 -1.293,-3.095 -3.877,-5.7518 -7.164,-7.042 -3.232,1.2902 -5.732,3.947 -7.024,7.042 1.292,3.2726 3.792,5.853 7.024,7.1408" />
      <path
         inkscape:connector-curvature="0"
         id="path894-5-3"
         style="display:inline;fill:#a13028;fill-opacity:1;fill-rule:nonzero;stroke:none;stroke-width:2.24768329"
         d="m 17977.699,8049.6688 c 3.288,-1.2878 5.872,-3.8682 7.165,-7.1408 -1.293,-3.095 -3.877,-5.7518 -7.165,-7.042 -3.258,1.2902 -5.731,3.947 -7.024,7.042 1.293,3.2726 3.766,5.853 7.024,7.1408" />
      <path
         inkscape:connector-curvature="0"
         id="path896-8-2"
         style="display:inline;fill:#a13028;fill-opacity:1;fill-rule:nonzero;stroke:none;stroke-width:2.24768329"
         d="m 17957.808,8049.6688 c 3.286,-1.2878 5.872,-3.8682 7.165,-7.1408 -1.293,-3.095 -3.879,-5.7518 -7.165,-7.042 -3.259,1.2902 -5.732,3.947 -7.054,7.042 1.322,3.2726 3.795,5.853 7.054,7.1408" />
      <path
         inkscape:connector-curvature="0"
         id="path898-8-5"
         style="display:inline;fill:#a13028;fill-opacity:1;fill-rule:nonzero;stroke:none;stroke-width:2.24768329"
         d="m 17937.916,8049.6688 c 3.286,-1.2878 5.872,-3.8682 7.164,-7.1408 -1.292,-3.095 -3.878,-5.7518 -7.164,-7.042 -3.26,1.2902 -5.732,3.947 -7.053,7.042 1.321,3.2726 3.793,5.853 7.053,7.1408" />
      <path
         inkscape:connector-curvature="0"
         id="path900-3-7"
         style="display:inline;fill:#a13028;fill-opacity:1;fill-rule:nonzero;stroke:none;stroke-width:2.24768329"
         d="m 17918.024,8049.6688 c 3.286,-1.2878 5.87,-3.8682 7.163,-7.1408 -1.293,-3.095 -3.877,-5.7518 -7.163,-7.042 -3.259,1.2902 -5.732,3.947 -7.054,7.042 1.322,3.2726 3.795,5.853 7.054,7.1408" />
      <path
         inkscape:connector-curvature="0"
         id="path902-3-2"
         style="display:inline;fill:#a13028;fill-opacity:1;fill-rule:nonzero;stroke:none;stroke-width:2.24768329"
         d="m 17898.132,8049.6688 c 3.285,-1.2878 5.871,-3.8682 7.162,-7.1408 -1.291,-3.095 -3.877,-5.7518 -7.162,-7.042 -3.233,1.2902 -5.731,3.947 -7.024,7.042 1.293,3.2726 3.791,5.853 7.024,7.1408" />
      <path
         inkscape:connector-curvature="0"
         id="path904-1-5"
         style="display:inline;fill:#a13028;fill-opacity:1;fill-rule:nonzero;stroke:none;stroke-width:2.24768329"
         d="m 17877.931,8049.5655 c 3.68,-1.1688 6.18,-3.7581 7.472,-7.0375 -1.292,-3.0861 -3.96,-5.7473 -6.825,-7.1341 -3.035,1.1284 -5.649,3.5377 -7.336,6.4126 0.845,3.4389 3.203,6.2823 6.689,7.759" />
      <path
         inkscape:connector-curvature="0"
         id="path906-0-9"
         style="display:inline;fill:#a13028;fill-opacity:1;fill-rule:nonzero;stroke:none;stroke-width:2.24768329"
         d="m 17856.69,8046.0524 c 3.793,-0.2023 7.052,-2.223 8.934,-5.1517 -0.675,-3.3221 -2.473,-6.3632 -4.971,-8.4693 -3.203,0.409 -6.324,2.1263 -8.654,4.5222 0.02,3.5425 1.656,6.869 4.691,9.0988" />
      <path
         inkscape:connector-curvature="0"
         id="path908-8-0"
         style="display:inline;fill:#a13028;fill-opacity:1;fill-rule:nonzero;stroke:none;stroke-width:2.24768329"
         d="m 17836.883,8037.6528 c 3.736,0.6496 7.361,-0.4586 9.889,-2.9107 0.116,-3.3401 -0.897,-6.8016 -2.864,-9.4021 -3.233,-0.3192 -6.605,0.5484 -9.441,2.378 -0.786,3.403 -0.02,7.0892 2.416,9.9348" />
      <path
         inkscape:connector-curvature="0"
         id="path910-9-7"
         style="display:inline;fill:#a13028;fill-opacity:1;fill-rule:nonzero;stroke:none;stroke-width:2.24768329"
         d="m 17819.603,8024.8634 c 3.457,1.4992 7.248,1.2587 10.283,-0.5281 0.899,-3.2255 0.704,-6.8263 -0.589,-9.8067 -3.063,-1.0722 -6.547,-1.0114 -9.751,0.1123 -1.544,3.1153 -1.656,6.8779 0.07,10.218" />
      <path
         inkscape:connector-curvature="0"
         id="path912-2-2"
         style="display:inline;fill:#a13028;fill-opacity:1;fill-rule:nonzero;stroke:none;stroke-width:2.24768329"
         d="m 17805.753,8008.4172 c 3.035,2.2611 6.77,2.904 10.141,1.8745 1.602,-2.9332 2.276,-6.4801 1.687,-9.6763 -2.726,-1.7599 -6.127,-2.5061 -9.498,-2.1511 -2.219,2.666 -3.229,6.2937 -2.33,9.9529" />
      <path
         inkscape:connector-curvature="0"
         id="path914-0-1"
         style="display:inline;fill:#a13028;fill-opacity:1;fill-rule:nonzero;stroke:none;stroke-width:2.24768329"
         d="m 17796.088,7989.1792 c 2.442,2.913 5.926,4.4123 9.467,4.1987 2.22,-2.4791 3.709,-5.7698 3.907,-9.0065 -2.222,-2.3532 -5.396,-3.8683 -8.74,-4.3312 -2.809,2.0813 -4.608,5.3629 -4.634,9.139" />
      <path
         inkscape:connector-curvature="0"
         id="path916-7-2"
         style="display:inline;fill:#a13028;fill-opacity:1;fill-rule:nonzero;stroke:none;stroke-width:2.24768329"
         d="m 17791.255,7968.2038 c 1.685,3.403 4.747,5.6732 8.174,6.3048 2.811,-1.8835 4.975,-4.7291 5.93,-7.8377 -1.573,-2.8096 -4.355,-5.028 -7.446,-6.262 -3.26,1.3642 -5.733,4.1335 -6.658,7.7949" />
      <path
         inkscape:connector-curvature="0"
         id="path918-5-5"
         style="display:inline;fill:#a13028;fill-opacity:1;fill-rule:nonzero;stroke:none;stroke-width:2.24768329"
         d="m 17790.721,7947.5633 c 1.291,3.275 3.877,5.8666 7.135,7.1633 3.091,-1.2967 5.762,-3.8883 7.054,-7.1633 -1.292,-3.2545 -3.963,-5.7451 -7.054,-7.0442 -3.258,1.2991 -5.844,3.7897 -7.135,7.0442" />
      <path
         inkscape:connector-curvature="0"
         id="path920-8-1"
         style="display:inline;fill:#a13028;fill-opacity:1;fill-rule:nonzero;stroke:none;stroke-width:2.24768329"
         d="m 17790.721,7927.6714 c 1.291,3.2748 3.877,5.8665 7.135,7.1657 3.091,-1.2992 5.762,-3.8909 7.054,-7.1657 -1.292,-3.2524 -3.963,-5.7474 -7.054,-7.0443 -3.258,1.2969 -5.844,3.7919 -7.135,7.0443" />
      <path
         inkscape:connector-curvature="0"
         id="path922-8-8"
         style="display:inline;fill:#a13028;fill-opacity:1;fill-rule:nonzero;stroke:none;stroke-width:2.24768329"
         d="m 17790.721,7907.7771 c 1.291,3.2749 3.877,5.8687 7.135,7.1635 3.091,-1.2948 5.762,-3.8886 7.054,-7.1635 -1.292,-3.2501 -3.963,-5.7473 -7.054,-7.042 -3.258,1.2947 -5.844,3.7919 -7.135,7.042" />
      <path
         inkscape:connector-curvature="0"
         id="path924-8-4"
         style="display:inline;fill:#a13028;fill-opacity:1;fill-rule:nonzero;stroke:none;stroke-width:2.24768329"
         d="m 17790.721,7887.8851 c 1.291,3.2727 3.877,5.8688 7.135,7.1634 3.091,-1.2946 5.762,-3.8907 7.054,-7.1634 -1.292,-3.2546 -3.963,-5.7496 -7.054,-7.042 -3.258,1.2924 -5.844,3.7874 -7.135,7.042" />
      <path
         inkscape:connector-curvature="0"
         id="path926-2-1"
         style="display:inline;fill:#a13028;fill-opacity:1;fill-rule:nonzero;stroke:none;stroke-width:2.24768329"
         d="m 17790.721,7867.9931 c 1.291,3.2727 3.877,5.8687 7.135,7.1634 3.091,-1.2947 5.762,-3.8907 7.054,-7.1634 -1.292,-3.2546 -3.963,-5.7495 -7.054,-7.0442 -3.258,1.2947 -5.844,3.7896 -7.135,7.0442" />
      <path
         inkscape:connector-curvature="0"
         id="path928-2-5"
         style="display:inline;fill:#a13028;fill-opacity:1;fill-rule:nonzero;stroke:none;stroke-width:2.24768329"
         d="m 17790.721,7848.1012 c 1.291,3.2725 3.877,5.8664 7.135,7.1634 3.091,-1.297 5.762,-3.8909 7.054,-7.1634 -1.292,-3.2547 -3.963,-5.7497 -7.054,-7.0465 -3.258,1.2968 -5.844,3.7918 -7.135,7.0465" />
      <path
         inkscape:connector-curvature="0"
         id="path930-1-1"
         style="display:inline;fill:#a13028;fill-opacity:1;fill-rule:nonzero;stroke:none;stroke-width:2.24768329"
         d="m 17790.721,7828.2091 c 1.291,3.2727 3.877,5.8665 7.135,7.1634 3.091,-1.2969 5.762,-3.8907 7.054,-7.1634 -1.292,-3.2546 -3.963,-5.7495 -7.054,-7.0465 -3.258,1.297 -5.844,3.7919 -7.135,7.0465" />
      <path
         inkscape:connector-curvature="0"
         id="path932-3-4"
         style="display:inline;fill:#a13028;fill-opacity:1;fill-rule:nonzero;stroke:none;stroke-width:2.24768329"
         d="m 17790.721,7808.3149 c 1.291,3.2748 3.877,5.8687 7.135,7.1657 3.091,-1.297 5.762,-3.8909 7.054,-7.1657 -1.292,-3.2524 -3.963,-5.7474 -7.054,-7.0421 -3.258,1.2947 -5.844,3.7897 -7.135,7.0421" />
      <path
         inkscape:connector-curvature="0"
         id="path934-3-6"
         style="display:inline;fill:#a13028;fill-opacity:1;fill-rule:nonzero;stroke:none;stroke-width:2.24768329"
         d="m 17790.721,7788.4206 c 1.291,3.2772 3.877,5.8732 7.135,7.1679 3.091,-1.2947 5.762,-3.8907 7.054,-7.1679 -1.292,-3.2523 -3.963,-5.745 -7.054,-7.0397 -3.258,1.2947 -5.844,3.7874 -7.135,7.0397" />
      <path
         inkscape:connector-curvature="0"
         id="path936-3-2"
         style="display:inline;fill:#a13028;fill-opacity:1;fill-rule:nonzero;stroke:none;stroke-width:2.24768329"
         d="m 17790.721,7768.5287 c 1.291,3.2771 3.877,5.8664 7.135,7.1679 3.091,-1.3015 5.762,-3.8908 7.054,-7.1679 -1.292,-3.2524 -3.963,-5.7452 -7.054,-7.0444 -3.258,1.2992 -5.844,3.792 -7.135,7.0444" />
      <path
         inkscape:connector-curvature="0"
         id="path938-4-8"
         style="display:inline;fill:#a13028;fill-opacity:1;fill-rule:nonzero;stroke:none;stroke-width:2.24768329"
         d="m 17790.805,7748.3961 c 1.152,3.666 3.793,6.0576 7.051,7.4084 3.121,-1.2475 5.732,-4.0458 7.11,-6.9251 -1.18,-3.0096 -3.627,-5.5968 -6.491,-7.2555 -3.455,0.8833 -6.264,3.2838 -7.67,6.7722" />
      <path
         inkscape:connector-curvature="0"
         id="path940-6-9"
         style="display:inline;fill:#a13028;fill-opacity:1;fill-rule:nonzero;stroke:none;stroke-width:2.24768329"
         d="m 17794.065,7727.1263 c 0.28,3.7851 2.247,7.0196 5.252,8.8851 3.26,-0.7237 6.379,-2.5624 8.402,-5.0888 -0.479,-3.2073 -2.135,-6.2642 -4.636,-8.5884 -3.485,0.067 -6.883,1.715 -9.018,4.7944" />
      <path
         inkscape:connector-curvature="0"
         id="path942-6-8"
         style="display:inline;fill:#a13028;fill-opacity:1;fill-rule:nonzero;stroke:none;stroke-width:2.24768329"
         d="m 17802.212,7707.2186 c -0.59,3.7491 0.562,7.3522 3.035,9.8695 3.343,0.067 6.799,-0.9845 9.354,-2.9714 0.311,-3.2231 -0.588,-6.5969 -2.471,-9.4357 -3.399,-0.7374 -7.051,0.067 -9.918,2.5376" />
      <path
         inkscape:connector-curvature="0"
         id="path944-8-6"
         style="display:inline;fill:#a13028;fill-opacity:1;fill-rule:nonzero;stroke:none;stroke-width:2.24768329"
         d="m 17814.8,7689.7789 c -1.435,3.5063 -1.154,7.2802 0.674,10.3123 3.229,0.8429 6.826,0.6181 9.776,-0.7147 1.068,-3.0502 0.927,-6.5679 -0.201,-9.746 -3.177,-1.5262 -6.884,-1.5824 -10.256,0.1574" />
      <path
         inkscape:connector-curvature="0"
         id="path946-6-1"
         style="display:inline;fill:#a13028;fill-opacity:1;fill-rule:nonzero;stroke:none;stroke-width:2.24768329"
         d="m 17831.095,7675.7421 c -2.22,3.0883 -2.81,6.8261 -1.742,10.1841 2.949,1.5802 6.518,2.2005 9.692,1.5758 1.742,-2.7064 2.416,-6.179 2.053,-9.5168 -2.727,-2.2342 -6.324,-3.1266 -10.003,-2.2431" />
      <path
         inkscape:connector-curvature="0"
         id="path948-2-4"
         style="display:inline;fill:#a13028;fill-opacity:1;fill-rule:nonzero;stroke:none;stroke-width:2.24768329"
         d="m 17850.228,7665.8972 c -2.866,2.4701 -4.327,5.9856 -4.073,9.483 2.498,2.2477 5.814,3.6457 9.047,3.8076 2.33,-2.2231 3.791,-5.4485 4.241,-8.7638 -2.134,-2.8321 -5.422,-4.5314 -9.215,-4.5268" />
      <path
         inkscape:connector-curvature="0"
         id="path950-8-1"
         style="display:inline;fill:#a13028;fill-opacity:1;fill-rule:nonzero;stroke:none;stroke-width:2.24768329"
         d="m 17871.16,7660.8377 c -3.401,1.6677 -5.62,4.8077 -6.211,8.2264 1.91,2.8097 4.777,4.8955 7.897,5.8553 2.81,-1.6205 4.972,-4.4302 6.181,-7.5409 -1.406,-3.2593 -4.188,-5.671 -7.867,-6.5408" />
      <path
         inkscape:connector-curvature="0"
         id="path952-9-7"
         style="display:inline;fill:#a13028;fill-opacity:1;fill-rule:nonzero;stroke:none;stroke-width:2.24768329"
         d="m 17891.865,7660.1633 c -3.259,1.2835 -5.871,3.8638 -7.163,7.1387 1.292,3.0995 3.904,5.754 7.163,7.0396 3.26,-1.2856 5.761,-3.9401 7.054,-7.0396 -1.293,-3.2749 -3.794,-5.8552 -7.054,-7.1387" />
      <path
         inkscape:connector-curvature="0"
         id="path954-3-8"
         style="display:inline;fill:#a13028;fill-opacity:1;fill-rule:nonzero;stroke:none;stroke-width:2.24768329"
         d="m 17911.758,7660.1633 c -3.26,1.2835 -5.872,3.8638 -7.164,7.1387 1.292,3.0995 3.904,5.754 7.164,7.0396 3.26,-1.2856 5.759,-3.9401 7.052,-7.0396 -1.293,-3.2749 -3.792,-5.8552 -7.052,-7.1387" />
      <path
         inkscape:connector-curvature="0"
         id="path956-2-7"
         style="display:inline;fill:#a13028;fill-opacity:1;fill-rule:nonzero;stroke:none;stroke-width:2.24768329"
         d="m 17931.65,7660.1633 c -3.26,1.2835 -5.845,3.8638 -7.164,7.1387 1.319,3.0995 3.904,5.754 7.164,7.0396 3.259,-1.2856 5.76,-3.9401 7.052,-7.0396 -1.292,-3.2749 -3.793,-5.8552 -7.052,-7.1387" />
      <path
         inkscape:connector-curvature="0"
         id="path958-4-1"
         style="display:inline;fill:#a13028;fill-opacity:1;fill-rule:nonzero;stroke:none;stroke-width:2.24768329"
         d="m 17951.542,7660.1633 c -3.259,1.2835 -5.872,3.8638 -7.164,7.1387 1.292,3.0995 3.905,5.754 7.164,7.0396 3.259,-1.2856 5.76,-3.9401 7.054,-7.0396 -1.294,-3.2749 -3.795,-5.8552 -7.054,-7.1387" />
      <path
         inkscape:connector-curvature="0"
         id="path960-9-6"
         style="display:inline;fill:#a13028;fill-opacity:1;fill-rule:nonzero;stroke:none;stroke-width:2.24768329"
         d="m 17971.434,7660.1633 c -3.259,1.2835 -5.872,3.8638 -7.164,7.1387 1.292,3.0995 3.905,5.754 7.164,7.0396 3.26,-1.2856 5.762,-3.9401 7.053,-7.0396 -1.291,-3.2749 -3.793,-5.8552 -7.053,-7.1387" />
      <path
         inkscape:connector-curvature="0"
         id="path962-0-3"
         style="display:inline;fill:#a13028;fill-opacity:1;fill-rule:nonzero;stroke:none;stroke-width:2.24768329"
         d="m 17991.326,7660.1633 c -3.259,1.2835 -5.844,3.8638 -7.164,7.1387 1.32,3.0995 3.905,5.754 7.164,7.0396 3.259,-1.2856 5.761,-3.9401 7.053,-7.0396 -1.292,-3.2749 -3.794,-5.8552 -7.053,-7.1387" />
      <path
         inkscape:connector-curvature="0"
         id="path964-4-4"
         style="display:inline;fill:#a13028;fill-opacity:1;fill-rule:nonzero;stroke:none;stroke-width:2.24768329"
         d="m 18011.217,7660.1633 c -3.258,1.2835 -5.843,3.8638 -7.163,7.1387 1.32,3.0995 3.905,5.754 7.163,7.0396 3.26,-1.2856 5.762,-3.9401 7.055,-7.0396 -1.293,-3.2749 -3.795,-5.8552 -7.055,-7.1387" />
      <path
         inkscape:connector-curvature="0"
         id="path966-7-9"
         style="display:inline;fill:#a13028;fill-opacity:1;fill-rule:nonzero;stroke:none;stroke-width:2.24768329"
         d="m 18031.11,7660.1633 c -3.259,1.2835 -5.844,3.8638 -7.165,7.1387 1.321,3.0995 3.906,5.754 7.165,7.0396 3.259,-1.2856 5.761,-3.9401 7.053,-7.0396 -1.292,-3.2749 -3.794,-5.8552 -7.053,-7.1387" />
      <path
         inkscape:connector-curvature="0"
         id="path968-7-9"
         style="display:inline;fill:#a13028;fill-opacity:1;fill-rule:nonzero;stroke:none;stroke-width:2.24768329"
         d="m 18051.002,7660.1633 c -3.259,1.2835 -5.844,3.8638 -7.163,7.1387 1.319,3.0995 3.904,5.754 7.163,7.0396 3.259,-1.2856 5.761,-3.9401 7.053,-7.0396 -1.292,-3.2749 -3.794,-5.8552 -7.053,-7.1387" />
      <path
         inkscape:connector-curvature="0"
         id="path970-3-3"
         style="display:inline;fill:#a13028;fill-opacity:1;fill-rule:nonzero;stroke:none;stroke-width:2.24768329"
         d="m 18070.923,7660.1633 c -3.288,1.2835 -5.874,3.8638 -7.192,7.1387 1.318,3.0995 3.904,5.754 7.192,7.0396 3.23,-1.2856 5.732,-3.9401 7.025,-7.0396 -1.293,-3.2749 -3.795,-5.8552 -7.025,-7.1387" />
      <path
         inkscape:connector-curvature="0"
         id="path972-7-3"
         style="display:inline;fill:#a13028;fill-opacity:1;fill-rule:nonzero;stroke:none;stroke-width:2.24768329"
         d="m 18090.786,7660.1633 c -3.259,1.2835 -5.844,3.8638 -7.164,7.1387 1.32,3.0995 3.905,5.754 7.164,7.0396 3.259,-1.2856 5.76,-3.9401 7.053,-7.0396 -1.293,-3.2749 -3.794,-5.8552 -7.053,-7.1387" />
      <path
         inkscape:connector-curvature="0"
         id="path974-3-6"
         style="display:inline;fill:#a13028;fill-opacity:1;fill-rule:nonzero;stroke:none;stroke-width:2.24768329"
         d="m 18110.693,7660.1633 c -3.275,1.2835 -5.859,3.8638 -7.178,7.1387 1.319,3.0995 3.903,5.754 7.178,7.0396 3.253,-1.2856 5.748,-3.9401 7.042,-7.0396 -1.294,-3.2749 -3.789,-5.8552 -7.042,-7.1387" />
      <path
         inkscape:connector-curvature="0"
         id="path976-1-0"
         style="display:inline;fill:#a13028;fill-opacity:1;fill-rule:nonzero;stroke:none;stroke-width:2.24768329"
         d="m 18130.585,7660.1633 c -3.274,1.2835 -5.865,3.8638 -7.163,7.1387 1.298,3.0995 3.889,5.754 7.163,7.0396 3.255,-1.2856 5.748,-3.9401 7.047,-7.0396 -1.299,-3.2749 -3.792,-5.8552 -7.047,-7.1387" />
      <path
         inkscape:connector-curvature="0"
         id="path978-1-2"
         style="display:inline;fill:#a13028;fill-opacity:1;fill-rule:nonzero;stroke:none;stroke-width:2.24768329"
         d="m 18150.477,7660.1633 c -3.275,1.2835 -5.864,3.8638 -7.164,7.1387 1.3,3.0995 3.889,5.754 7.164,7.0396 3.255,-1.2856 5.749,-3.9401 7.047,-7.0396 -1.298,-3.2749 -3.792,-5.8552 -7.047,-7.1387" />
      <path
         inkscape:connector-curvature="0"
         id="path980-5-5"
         style="display:inline;fill:#a13028;fill-opacity:1;fill-rule:nonzero;stroke:none;stroke-width:2.24768329"
         d="m 18170.371,7660.1633 c -3.277,1.2835 -5.867,3.8638 -7.165,7.1387 1.298,3.0995 3.888,5.754 7.165,7.0396 3.253,-1.2856 5.746,-3.9401 7.044,-7.0396 -1.298,-3.2749 -3.791,-5.8552 -7.044,-7.1387" />
      <path
         inkscape:connector-curvature="0"
         id="path982-6-7"
         style="display:inline;fill:#a13028;fill-opacity:1;fill-rule:nonzero;stroke:none;stroke-width:2.24768329"
         d="m 18190.266,7660.1633 c -3.275,1.2835 -5.868,3.8638 -7.168,7.1387 1.3,3.0995 3.893,5.754 7.168,7.0396 3.25,-1.2856 5.743,-3.9401 7.042,-7.0396 -1.299,-3.2749 -3.792,-5.8552 -7.042,-7.1387" />
      <path
         inkscape:connector-curvature="0"
         id="path984-0-0"
         style="display:inline;fill:#a13028;fill-opacity:1;fill-rule:nonzero;stroke:none;stroke-width:2.24768329"
         d="m 18210.158,7660.1633 c -3.274,1.2835 -5.868,3.8638 -7.169,7.1387 1.301,3.0995 3.895,5.754 7.169,7.0396 3.249,-1.2856 5.746,-3.9401 7.042,-7.0396 -1.296,-3.2749 -3.793,-5.8552 -7.042,-7.1387" />
      <path
         inkscape:connector-curvature="0"
         id="path986-1-2"
         style="display:inline;fill:#a13028;fill-opacity:1;fill-rule:nonzero;stroke:none;stroke-width:2.24768329"
         d="m 18230.049,7660.1633 c -3.274,1.2835 -5.868,3.8638 -7.163,7.1387 1.295,3.0995 3.889,5.754 7.163,7.0396 3.251,-1.2856 5.751,-3.9401 7.046,-7.0396 -1.295,-3.2749 -3.795,-5.8552 -7.046,-7.1387" />
      <path
         inkscape:connector-curvature="0"
         id="path988-6-8"
         style="display:inline;fill:#a13028;fill-opacity:1;fill-rule:nonzero;stroke:none;stroke-width:2.24768329"
         d="m 18249.942,7660.1633 c -3.274,1.2835 -5.868,3.8638 -7.163,7.1387 1.295,3.0995 3.889,5.754 7.163,7.0396 3.255,-1.2856 5.749,-3.9401 7.044,-7.0396 -1.295,-3.2749 -3.789,-5.8552 -7.044,-7.1387" />
      <path
         inkscape:connector-curvature="0"
         id="path990-5-5"
         style="display:inline;fill:#a13028;fill-opacity:1;fill-rule:nonzero;stroke:none;stroke-width:2.24768329"
         d="m 18269.834,7660.1633 c -3.272,1.2835 -5.868,3.8638 -7.163,7.1387 1.295,3.0995 3.891,5.754 7.163,7.0396 3.255,-1.2856 5.749,-3.9401 7.044,-7.0396 -1.295,-3.2749 -3.789,-5.8552 -7.044,-7.1387" />
      <path
         inkscape:connector-curvature="0"
         id="path992-1-5"
         style="display:inline;fill:#a13028;fill-opacity:1;fill-rule:nonzero;stroke:none;stroke-width:2.24768329"
         d="m 18289.725,7660.1633 c -3.271,1.2835 -5.867,3.8638 -7.163,7.1387 1.296,3.0995 3.892,5.754 7.163,7.0396 3.255,-1.2856 5.75,-3.9401 7.048,-7.0396 -1.298,-3.2749 -3.793,-5.8552 -7.048,-7.1387" />
      <path
         inkscape:connector-curvature="0"
         id="path994-7-4"
         style="display:inline;fill:#a13028;fill-opacity:1;fill-rule:nonzero;stroke:none;stroke-width:2.24768329"
         d="m 18309.618,7660.1633 c -3.273,1.2835 -5.866,3.8638 -7.164,7.1387 1.298,3.0995 3.891,5.754 7.164,7.0396 3.255,-1.2856 5.749,-3.9401 7.046,-7.0396 -1.297,-3.2749 -3.791,-5.8552 -7.046,-7.1387" />
      <path
         inkscape:connector-curvature="0"
         id="path996-0-2"
         style="display:inline;fill:#a13028;fill-opacity:1;fill-rule:nonzero;stroke:none;stroke-width:2.24768329"
         d="m 18329.512,7660.1633 c -3.274,1.2835 -5.868,3.8638 -7.165,7.1387 1.297,3.0995 3.891,5.754 7.165,7.0396 3.253,-1.2856 5.747,-3.9401 7.044,-7.0396 -1.297,-3.2749 -3.791,-5.8552 -7.044,-7.1387" />
      <path
         inkscape:connector-curvature="0"
         id="path998-3-4"
         style="display:inline;fill:#a13028;fill-opacity:1;fill-rule:nonzero;stroke:none;stroke-width:2.24768329"
         d="m 18349.404,7660.1633 c -3.274,1.2835 -5.869,3.8638 -7.166,7.1387 1.297,3.0995 3.892,5.754 7.166,7.0396 3.252,-1.2788 5.75,-3.9693 7.045,-7.0194 -1.295,-3.3176 -3.793,-5.8642 -7.045,-7.1589" />
      <path
         inkscape:connector-curvature="0"
         id="path1000-6-4"
         style="display:inline;fill:#a13028;fill-opacity:1;fill-rule:nonzero;stroke:none;stroke-width:2.24768329"
         d="m 18370.386,7661.3906 c -3.731,0.7147 -6.734,3.0007 -8.265,6.1945 1.068,3.1626 3.227,6.0598 5.961,7.8064 3.136,-0.8093 6,-2.8141 8.035,-5.5272 -0.448,-3.4591 -2.44,-6.6352 -5.731,-8.4737" />
      <path
         inkscape:connector-curvature="0"
         id="path1002-7-0"
         style="display:inline;fill:#a13028;fill-opacity:1;fill-rule:nonzero;stroke:none;stroke-width:2.24768329"
         d="m 18391.069,7667.3672 c -3.804,-0.1799 -7.26,1.3554 -9.5,4.0818 0.292,3.3378 1.707,6.6508 3.965,8.9771 3.215,0 6.497,-1.3306 9.097,-3.45 0.396,-3.5065 -0.815,-7.0062 -3.562,-9.6089" />
      <path
         inkscape:connector-curvature="0"
         id="path1004-1-0"
         style="display:inline;fill:#a13028;fill-opacity:1;fill-rule:nonzero;stroke:none;stroke-width:2.24768329"
         d="m 18409.748,7678.0526 c -3.64,-1.0765 -7.381,-0.3685 -10.18,1.7329 -0.518,3.3356 0.116,6.8645 1.742,9.6674 3.138,0.7418 6.645,0.2247 9.656,-1.234 1.21,-3.3198 0.845,-7.0059 -1.218,-10.1663" />
      <path
         inkscape:connector-curvature="0"
         id="path1006-5-2"
         style="display:inline;fill:#a13028;fill-opacity:1;fill-rule:nonzero;stroke:none;stroke-width:2.24768329"
         d="m 18425.416,7692.7794 c -3.28,-1.9037 -7.1,-2.0611 -10.292,-0.6855 -1.294,3.14 -1.493,6.7003 -0.562,9.8179 2.886,1.4498 6.419,1.7509 9.685,1.0362 1.947,-2.9468 2.449,-6.6217 1.169,-10.1686" />
      <path
         inkscape:connector-curvature="0"
         id="path1008-8-2"
         style="display:inline;fill:#a13028;fill-opacity:1;fill-rule:nonzero;stroke:none;stroke-width:2.24768329"
         d="m 18437.239,7710.7452 c -2.734,-2.6231 -6.424,-3.6637 -9.846,-3.0658 -1.995,2.7534 -2.997,6.1675 -2.84,9.42 2.473,2.0747 5.842,3.1895 9.182,3.2659 2.586,-2.414 3.924,-5.8732 3.504,-9.6201" />
      <path
         inkscape:connector-curvature="0"
         id="path1010-4-3"
         style="display:inline;fill:#a13028;fill-opacity:1;fill-rule:nonzero;stroke:none;stroke-width:2.24768329"
         d="m 18444.526,7730.9991 c -2.03,-3.1917 -5.361,-5.0844 -8.858,-5.2933 -2.552,2.2005 -4.349,5.2843 -4.966,8.4828 1.95,2.5892 4.905,4.4774 8.164,5.3359 3.049,-1.7374 5.219,-4.7853 5.66,-8.5254" />
      <path
         inkscape:connector-curvature="0"
         id="path1012-7-2"
         style="display:inline;fill:#a13028;fill-opacity:1;fill-rule:nonzero;stroke:none;stroke-width:2.24768329"
         d="m 18446.879,7752.3183 c -1.319,-3.4389 -4.007,-6.1496 -7.407,-7.1498 -2.95,1.5643 -5.522,4.0504 -6.776,7.1498 1.288,3.257 3.945,5.7519 7.04,7.0465 3.277,-1.2946 5.856,-3.7895 7.143,-7.0465" />
      <path
         inkscape:connector-curvature="0"
         id="path1014-2-1"
         style="display:inline;fill:#a13028;fill-opacity:1;fill-rule:nonzero;stroke:none;stroke-width:2.24768329"
         d="m 18446.879,7772.2104 c -1.287,-3.2772 -3.866,-5.8643 -7.143,-7.1589 -3.095,1.2946 -5.752,3.8817 -7.04,7.1589 1.288,3.2568 3.945,5.7518 7.04,7.0465 3.277,-1.2947 5.856,-3.7897 7.143,-7.0465" />
      <path
         inkscape:connector-curvature="0"
         id="path1016-3-3"
         style="display:inline;fill:#a13028;fill-opacity:1;fill-rule:nonzero;stroke:none;stroke-width:2.24768329"
         d="m 18446.879,7792.1046 c -1.287,-3.2727 -3.866,-5.8665 -7.143,-7.161 -3.095,1.2945 -5.752,3.8883 -7.04,7.161 1.288,3.2547 3.945,5.7495 7.04,7.0442 3.277,-1.2947 5.856,-3.7895 7.143,-7.0442" />
      <path
         inkscape:connector-curvature="0"
         id="path1018-1-2"
         style="display:inline;fill:#a13028;fill-opacity:1;fill-rule:nonzero;stroke:none;stroke-width:2.24768329"
         d="m 18446.879,7811.9988 c -1.287,-3.2748 -3.866,-5.8687 -7.143,-7.1657 -3.095,1.297 -5.752,3.8909 -7.04,7.1657 1.288,3.2524 3.945,5.7474 7.04,7.0421 3.277,-1.2947 5.856,-3.7897 7.143,-7.0421" />
      <path
         inkscape:connector-curvature="0"
         id="path1020-1-1"
         style="display:inline;fill:#a13028;fill-opacity:1;fill-rule:nonzero;stroke:none;stroke-width:2.24768329"
         d="m 18446.879,7831.8908 c -1.287,-3.2749 -3.866,-5.8687 -7.143,-7.1633 -3.095,1.2946 -5.752,3.8884 -7.04,7.1633 1.288,3.2524 3.945,5.7496 7.04,7.042 3.277,-1.2924 5.856,-3.7896 7.143,-7.042" />
      <path
         inkscape:connector-curvature="0"
         id="path1022-7-0"
         style="display:inline;fill:#a13028;fill-opacity:1;fill-rule:nonzero;stroke:none;stroke-width:2.24768329"
         d="m 18446.879,7851.7851 c -1.287,-3.2749 -3.866,-5.871 -7.143,-7.1657 -3.095,1.2947 -5.752,3.8908 -7.04,7.1657 1.288,3.2523 3.945,5.7473 7.04,7.042 3.277,-1.2947 5.856,-3.7897 7.143,-7.042" />
      <path
         inkscape:connector-curvature="0"
         id="path1024-6-4"
         style="display:inline;fill:#a13028;fill-opacity:1;fill-rule:nonzero;stroke:none;stroke-width:2.24768329"
         d="m 18446.879,7871.6771 c -1.287,-3.2749 -3.866,-5.871 -7.143,-7.1657 -3.095,1.2947 -5.752,3.8908 -7.04,7.1657 1.288,3.2524 3.945,5.7473 7.04,7.042 3.277,-1.2947 5.856,-3.7896 7.143,-7.042" />
      <path
         inkscape:connector-curvature="0"
         id="path1026-5-9"
         style="display:inline;fill:#a13028;fill-opacity:1;fill-rule:nonzero;stroke:none;stroke-width:2.24768329"
         d="m 18446.879,7891.569 c -1.287,-3.2748 -3.866,-5.8663 -7.143,-7.1656 -3.095,1.2993 -5.752,3.8908 -7.04,7.1656 1.288,3.2524 3.945,5.7474 7.04,7.0444 3.277,-1.297 5.856,-3.792 7.143,-7.0444" />
      <path
         inkscape:connector-curvature="0"
         id="path1028-0-0"
         style="display:inline;fill:#a13028;fill-opacity:1;fill-rule:nonzero;stroke:none;stroke-width:2.24768329"
         d="m 18446.879,7911.4588 c -1.287,-3.2726 -3.866,-5.8642 -7.143,-7.1634 -3.095,1.2992 -5.752,3.8908 -7.04,7.1634 1.288,3.2547 3.945,5.7497 7.04,7.0465 3.277,-1.2968 5.856,-3.7918 7.143,-7.0465" />
      <path
         inkscape:connector-curvature="0"
         id="path1030-7-8"
         style="display:inline;fill:#a13028;fill-opacity:1;fill-rule:nonzero;stroke:none;stroke-width:2.24768329"
         d="m 18446.879,7931.3553 c -1.287,-3.2771 -3.866,-5.871 -7.143,-7.1677 -3.095,1.2967 -5.752,3.8906 -7.04,7.1677 1.288,3.2501 3.945,5.7451 7.04,7.0443 3.277,-1.2992 5.856,-3.7942 7.143,-7.0443" />
      <path
         inkscape:connector-curvature="0"
         id="path1032-6-9"
         style="display:inline;fill:#a13028;fill-opacity:1;fill-rule:nonzero;stroke:none;stroke-width:2.24768329"
         d="m 18446.879,7951.2473 c -1.287,-3.2772 -3.866,-5.871 -7.143,-7.1679 -3.095,1.2969 -5.752,3.8907 -7.04,7.1679 1.288,3.2502 3.945,5.7452 7.04,7.0443 3.277,-1.2991 5.856,-3.7941 7.143,-7.0443" />
      <path
         inkscape:connector-curvature="0"
         id="path1826-9-8"
         style="display:inline;fill:#a13028;fill-opacity:1;fill-rule:nonzero;stroke:none;stroke-width:0.63000488"
         d="m 17875.893,7998.2853 c 15.912,-0.5931 38.209,-0.9223 71.756,0.2959 15.559,0.598 19.257,-5.8175 24.425,-33.0454 2.283,-11.8175 11.303,-5.5236 24.122,-9.1467 11.607,-4.5709 13.783,-32.3915 13.783,-32.3915 0.08,-6.2687 3.495,-6.4155 5.473,-5.4932 45.507,19.2411 93.599,-9.9173 94.661,-4.9005 8.36,22.9814 31.317,21.228 34.204,15.2889 -0.608,10.3628 15.255,18.9168 20.12,16.4796 17.587,-9.2939 17.886,-16.0337 30.101,-20.3053 22.297,-9.6235 17.534,-20.0727 38.918,-21.2334 15.609,-0.8311 20.777,-3.415 24.426,-6.7089 16.216,-15.8565 2.129,-36.9374 -7.601,-43.9763 3.648,-16.4796 -20.169,-36.5518 -25.642,-50.3001 7.297,-0.146 18.446,-1.8393 35.675,-7.6872 9.021,-3.0912 6.892,1.4237 22.602,-0.1784 21.235,-1.9001 29.343,-4.0994 36.08,-7.1549 3.904,-1.8146 24.426,-1.3687 35.067,-5.0473 33.9,-4.9005 28.581,-35.4271 27.819,-38.3359 -0.324,-1.2162 -0.657,-1.2162 -6.94,-1.2162 -8.566,0.6235 -23.919,-3.8311 -36.438,-1.8142 -4.86,0.598 -12.514,-1.5405 -24.372,0 -14.85,-2.6096 -25.691,1.3378 -42.973,-4.8092 -2.587,-0.7699 -2.027,1.6929 -7.755,1.1606 -3.09,-0.3284 -2.684,-2.7616 -11.704,-1.6925 -10.285,1.1857 -23.461,0.1175 -35.931,0.1175 -12.515,0 -22.297,-2.554 -52.852,-5.1384 -12.466,-1.0942 -22.297,-6.7394 -31.419,-2.1637 -13.933,6.9478 -62.281,28.0894 -114.168,53.7408 -1.116,0.5372 -5.729,3.1167 -8.567,-3.6786 -5.825,-10.7788 -9.17,-7.6321 -29.643,-7.0086 -14.647,-0.5927 -3.802,-11.8174 -19.816,-11.4627 -24.778,0.5372 -34.459,2.5844 -70.588,1.8393 -14.647,-0.2959 -18.653,-0.8311 -18.904,9.5322 v 219.6969 c 0,3.3547 1.52,6.7398 6.081,6.7398" />
      <path
         inkscape:connector-curvature="0"
         id="path1828-2-5"
         style="display:inline;fill:#fdf8e9;fill-opacity:1;fill-rule:nonzero;stroke:none;stroke-width:0.63000488"
         d="m 18374.536,7750.6205 c 0.86,9.7094 -17.128,7.333 -24.271,5.8788 -4.261,-0.8311 -7.452,-7.6013 -3.195,-9.1471 l 26.554,2.4373 c 0.365,-0.04 0.965,0.6235 0.912,0.831" />
      <path
         inkscape:connector-curvature="0"
         id="path1830-6-3"
         style="display:inline;fill:#fdf8e9;fill-opacity:1;fill-rule:nonzero;stroke:none;stroke-width:0.63000488"
         d="m 18231.43,7863.9557 c -10.439,1.5758 -9.479,5.8479 -15.053,5.108 -7.346,-1.039 -0.758,-3.831 -25.945,-3.2079 -7.346,0 -11.299,-0.5068 -16.217,2.5844 -2.432,-2.0218 -8.209,-4.7533 -12.211,-1.2466 -9.121,-1.8446 -5.877,-2.9136 -21.384,0.6235 -20.878,4.7481 -25.034,-3.7702 -34.715,-8.5236 -2.533,-1.1858 -4.256,-2.108 -9.324,-1.3378 -38.461,4.6621 -21.838,4.5454 -75.197,1.3075 -18.451,-3.5019 -25.594,-13.4492 -24.831,-38.4779 1.52,-28.3882 7.601,-24.4404 23.205,-31.1498 63.193,-28.0894 105.61,-52.2006 122.078,-50.9844 46.771,0.6283 38.209,9.1774 99.879,7.3378 19.56,-2.4373 18.956,7.6012 26.249,6.4106 5.526,-3.0559 0.966,-5.9951 19.865,-4.2721 38.311,3.5018 45.965,-3.0304 49.459,3.0254 4.715,8.1385 4.561,13.2465 29.444,11.1384 2.076,-0.15 2.684,-0.2067 3.904,-0.4155 3.041,-0.7451 3.191,1.0946 0.243,3.3547 -2.432,1.8697 -22.702,11.6958 -46.418,7.9256 -13.431,-2.1385 -6.438,3.0859 -28.735,3.0859 -9.725,-0.6487 -15.806,-0.6487 -18.899,-1.277 -9.783,3.7147 -28.683,3.983 -34.816,2.4985 -7.501,-1.9005 -10.995,-4.3074 -17.737,-0.6539 -6.685,3.679 -21.38,8.7262 -43.325,6.1167 -25.641,-3.0608 -24.271,-8.0168 -26.857,-6.1167 -5.98,4.5405 6.234,12.9173 -6.435,22.5962 -6.49,4.9864 -13.43,-14.939 -19.868,-14.6402 -3.798,0.5371 -4.561,4.039 -2.684,8.2551 0.811,1.9913 8.461,13.3021 2.128,17.9946 -10.39,7.6572 -29.039,-15.2634 -43.426,-5.792 -3.348,2.5844 0.243,6.2683 4.305,5.792 6.941,-0.8311 18.649,5.8479 23.514,10.0944 6.385,5.7924 24.729,14.6403 31.471,17.4019 23.817,9.7653 31.719,2.4628 36.028,8.5491 3.648,4.5709 11.047,-2.3161 19.508,-3.6843 16.013,-2.6096 52.702,10.5457 49.207,18.6484 -1.366,2.6757 -3.851,2.4681 -7.147,1.8398 -3.393,-0.5627 -4.711,-0.6232 -9.271,0.093" />
      <path
         inkscape:connector-curvature="0"
         id="path1832-7-1"
         style="display:inline;fill:#fdf8e9;fill-opacity:1;fill-rule:nonzero;stroke:none;stroke-width:0.63000488"
         d="m 18222.458,7883.7036 c 3.702,-7.9609 4.054,-9.0303 11.761,-10.6925 6.738,-1.4846 26.298,4.277 23.663,12.5322 -1.978,2.5844 -10.187,2.7312 -15.405,3.9474 -5.473,1.277 -22.602,3.2079 -20.019,-5.7871" />
    </g>
  </g>
</svg>
