<?xml version="1.0" encoding="UTF-8" standalone="no"?>
<!-- Created with Inkscape (http://www.inkscape.org/) -->

<svg
   xmlns:dc="http://purl.org/dc/elements/1.1/"
   xmlns:cc="http://creativecommons.org/ns#"
   xmlns:rdf="http://www.w3.org/1999/02/22-rdf-syntax-ns#"
   xmlns:svg="http://www.w3.org/2000/svg"
   xmlns="http://www.w3.org/2000/svg"
   xmlns:sodipodi="http://sodipodi.sourceforge.net/DTD/sodipodi-0.dtd"
   xmlns:inkscape="http://www.inkscape.org/namespaces/inkscape"
   width="100"
   height="100"
   viewBox="0 0 26.458333 26.458334"
   version="1.1"
   id="svg8479"
   inkscape:version="0.92.1 r15371"
   sodipodi:docname="boton_tiempo_copy.svg">
  <defs
     id="defs8473" />
  <sodipodi:namedview
     id="base"
     pagecolor="#ffffff"
     bordercolor="#666666"
     borderopacity="1.0"
     inkscape:pageopacity="0.0"
     inkscape:pageshadow="2"
     inkscape:zoom="2.8"
     inkscape:cx="119.2078"
     inkscape:cy="135.45127"
     inkscape:document-units="mm"
     inkscape:current-layer="layer1"
     showgrid="false"
     units="px"
     inkscape:window-width="1920"
     inkscape:window-height="1051"
     inkscape:window-x="-9"
     inkscape:window-y="-9"
     inkscape:window-maximized="1" />
  <metadata
     id="metadata8476">
    <rdf:RDF>
      <cc:Work
         rdf:about="">
        <dc:format>image/svg+xml</dc:format>
        <dc:type
           rdf:resource="http://purl.org/dc/dcmitype/StillImage" />
        <dc:title></dc:title>
      </cc:Work>
    </rdf:RDF>
  </metadata>
  <g
     inkscape:label="Layer 1"
     inkscape:groupmode="layer"
     id="layer1"
     transform="translate(0,-270.54165)">
    <g
       transform="matrix(0.03953858,0,0,0.03953858,-702.75633,36.444207)"
       style="display:inline"
       id="g6438">
      <path
         inkscape:connector-curvature="0"
         id="path90-4-4-9"
         style="display:inline;fill:#f9d47a;fill-opacity:1;fill-rule:nonzero;stroke:none;stroke-width:1.89101708"
         d="m 18417.861,6255.0867 c 0,174.9323 -141.812,316.7453 -316.745,316.7453 -174.932,0 -316.746,-141.813 -316.746,-316.7453 0,-174.9434 141.814,-316.7448 316.746,-316.7448 174.933,0 316.745,141.8014 316.745,316.7448" />
      <path
         inkscape:connector-curvature="0"
         id="path92-7-0-9"
         style="display:inline;fill:#a13028;fill-opacity:1;fill-rule:nonzero;stroke:none;stroke-width:1.89101708"
         d="m 18101.116,5950.1608 c -168.137,0 -304.927,136.7904 -304.927,304.9259 0,168.1377 136.79,304.9264 304.927,304.9264 168.139,0 304.927,-136.7887 304.927,-304.9264 0,-168.1355 -136.788,-304.9259 -304.927,-304.9259 z m 0,633.4901 c -181.171,0 -328.564,-147.3929 -328.564,-328.5642 0,-181.1592 147.393,-328.5637 328.564,-328.5637 181.172,0 328.565,147.4045 328.565,328.5637 0,181.1713 -147.393,328.5642 -328.565,328.5642" />
      <path
         inkscape:connector-curvature="0"
         id="path94-8-8-5"
         style="display:inline;fill:#a13028;fill-opacity:1;fill-rule:nonzero;stroke:none;stroke-width:1.89101708"
         d="m 18312.502,6088.3462 24.112,-18.91 c -1.153,-1.4656 -2.321,-2.9312 -3.521,-4.3963 l -23.756,19.3353 c 1.067,1.3237 2.128,2.6231 3.165,3.971" />
      <path
         inkscape:connector-curvature="0"
         id="path96-4-0-9"
         style="display:inline;fill:#a13028;fill-opacity:1;fill-rule:nonzero;stroke:none;stroke-width:1.89101708"
         d="m 18337.454,6126.4033 26.951,-14.5381 c -0.899,-1.6544 -1.803,-3.3095 -2.734,-4.9396 l -26.661,15.0565 c 0.823,1.4656 1.648,2.9556 2.444,4.4212" />
      <path
         inkscape:connector-curvature="0"
         id="path98-5-3-7"
         style="display:inline;fill:#a13028;fill-opacity:1;fill-rule:nonzero;stroke:none;stroke-width:1.89101708"
         d="m 18344.277,6139.9468 27.746,-12.9537 c -0.796,-1.702 -1.614,-3.4041 -2.446,-5.1055 l -27.497,13.5203 c 0.754,1.5132 1.482,3.0257 2.197,4.5389" />
      <path
         inkscape:connector-curvature="0"
         id="path100-0-4-9"
         style="display:inline;fill:#a13028;fill-opacity:1;fill-rule:nonzero;stroke:none;stroke-width:1.89101708"
         d="m 18350.331,6153.9403 28.424,-11.4161 c -0.691,-1.7496 -1.418,-3.4985 -2.141,-5.2249 l -28.222,11.9134 c 0.658,1.5844 1.315,3.1445 1.939,4.7276" />
      <path
         inkscape:connector-curvature="0"
         id="path102-3-9-7"
         style="display:inline;fill:#a13028;fill-opacity:1;fill-rule:nonzero;stroke:none;stroke-width:1.89101708"
         d="m 18329.869,6113.2607 26.077,-16.0506 c -0.994,-1.6075 -1.986,-3.2152 -3.009,-4.7983 l -25.768,16.569 c 0.919,1.4188 1.813,2.8369 2.7,4.2799" />
      <path
         inkscape:connector-curvature="0"
         id="path104-6-1-6"
         style="display:inline;fill:#a13028;fill-opacity:1;fill-rule:nonzero;stroke:none;stroke-width:1.89101708"
         d="m 18321.541,6100.566 25.124,-17.5145 c -1.07,-1.5376 -2.16,-3.0727 -3.264,-4.6101 l -24.797,17.9896 c 0.992,1.3706 1.967,2.7417 2.937,4.135" />
      <path
         inkscape:connector-curvature="0"
         id="path106-1-7-7"
         style="display:inline;fill:#a13028;fill-opacity:1;fill-rule:nonzero;stroke:none;stroke-width:1.89101708"
         d="m 18355.573,6168.2172 29.047,-9.7386 c -0.59,-1.7964 -1.211,-3.5928 -1.848,-5.365 l -28.851,10.2815 c 0.563,1.6075 1.119,3.2151 1.652,4.8221" />
      <path
         inkscape:connector-curvature="0"
         id="path108-0-1-0"
         style="display:inline;fill:#a13028;fill-opacity:1;fill-rule:nonzero;stroke:none;stroke-width:1.89101708"
         d="m 18366.344,6212.5389 30.274,-4.7046 c -0.296,-1.844 -0.596,-3.7104 -0.915,-5.5543 l -30.185,5.2235 c 0.291,1.6789 0.565,3.3333 0.826,5.0354" />
      <path
         inkscape:connector-curvature="0"
         id="path110-6-7-3"
         style="display:inline;fill:#a13028;fill-opacity:1;fill-rule:nonzero;stroke:none;stroke-width:1.89101708"
         d="m 18369.271,6242.7707 30.617,-1.2286 c -0.08,-1.8671 -0.171,-3.758 -0.284,-5.6488 l -30.577,1.8189 c 0.1,1.6796 0.171,3.3815 0.244,5.0585" />
      <path
         inkscape:connector-curvature="0"
         id="path112-3-4-3"
         style="display:inline;fill:#a13028;fill-opacity:1;fill-rule:nonzero;stroke:none;stroke-width:1.89101708"
         d="m 18368.234,6227.6198 30.491,-2.9556 c -0.169,-1.8666 -0.376,-3.7574 -0.598,-5.6257 l -30.424,3.5227 c 0.189,1.6777 0.366,3.3565 0.531,5.0586" />
      <path
         inkscape:connector-curvature="0"
         id="path114-2-7-3"
         style="display:inline;fill:#a13028;fill-opacity:1;fill-rule:nonzero;stroke:none;stroke-width:1.89101708"
         d="m 18360.006,6182.7778 29.552,-8.0841 c -0.506,-1.819 -1.009,-3.6154 -1.546,-5.4362 l -29.391,8.6287 c 0.485,1.6301 0.939,3.262 1.385,4.8916" />
      <path
         inkscape:connector-curvature="0"
         id="path116-0-3-2"
         style="display:inline;fill:#a13028;fill-opacity:1;fill-rule:nonzero;stroke:none;stroke-width:1.89101708"
         d="m 18363.593,6197.5755 29.969,-6.4053 c -0.398,-1.8439 -0.813,-3.6647 -1.229,-5.5086 l -29.842,6.9499 c 0.381,1.6326 0.757,3.2863 1.102,4.964" />
      <path
         inkscape:connector-curvature="0"
         id="path118-6-7-2"
         style="display:inline;fill:#a13028;fill-opacity:1;fill-rule:nonzero;stroke:none;stroke-width:1.89101708"
         d="m 18325.521,6401.1223 25.595,16.828 c 1.027,-1.5747 2.054,-3.1578 3.056,-4.7538 l -25.923,-16.331 c -0.892,1.428 -1.806,2.8461 -2.728,4.2568" />
      <path
         inkscape:connector-curvature="0"
         id="path120-1-9-8"
         style="display:inline;fill:#a13028;fill-opacity:1;fill-rule:nonzero;stroke:none;stroke-width:1.89101708"
         d="m 18307.435,6425.4898 23.505,19.6442 c 1.219,-1.4541 2.414,-2.9118 3.582,-4.3854 l -23.897,-19.1597 c -1.048,1.3103 -2.104,2.6095 -3.19,3.9009" />
      <path
         inkscape:connector-curvature="0"
         id="path122-5-3-4"
         style="display:inline;fill:#a13028;fill-opacity:1;fill-rule:nonzero;stroke:none;stroke-width:1.89101708"
         d="m 18316.813,6413.5809 24.611,18.235 c 1.119,-1.5095 2.222,-3.0165 3.306,-4.5485 l -24.929,-17.7965 c -0.98,1.3791 -1.977,2.7485 -2.988,4.11" />
      <path
         inkscape:connector-curvature="0"
         id="path124-5-2-6"
         style="display:inline;fill:#a13028;fill-opacity:1;fill-rule:nonzero;stroke:none;stroke-width:1.89101708"
         d="m 18364.896,6303.2814 30.111,5.6047 c 0.342,-1.8438 0.672,-3.6799 0.983,-5.5365 l -30.211,-5.0646 c -0.278,1.666 -0.573,3.3303 -0.883,4.9964" />
      <path
         inkscape:connector-curvature="0"
         id="path126-4-4-5"
         style="display:inline;fill:#a13028;fill-opacity:1;fill-rule:nonzero;stroke:none;stroke-width:1.89101708"
         d="m 18368.782,6273.1592 30.559,2.2123 c 0.137,-1.878 0.246,-3.7536 0.349,-5.6371 l -30.58,-1.624 c -0.1,1.6867 -0.203,3.3748 -0.328,5.0488" />
      <path
         inkscape:connector-curvature="0"
         id="path128-7-3-5"
         style="display:inline;fill:#a13028;fill-opacity:1;fill-rule:nonzero;stroke:none;stroke-width:1.89101708"
         d="m 18369.489,6252.9163 c 0,1.6867 0,3.3656 -0.04,5.0522 l 30.635,0.5033 c 0.01,-1.8739 0.04,-3.7593 0.04,-5.6463 l -30.643,0.094" />
      <path
         inkscape:connector-curvature="0"
         id="path130-6-0-2"
         style="display:inline;fill:#a13028;fill-opacity:1;fill-rule:nonzero;stroke:none;stroke-width:1.89101708"
         d="m 18361.697,6318.0856 29.736,7.3508 c 0.449,-1.8287 0.881,-3.6648 1.294,-5.5031 l -29.875,-6.7453 c -0.371,1.6437 -0.764,3.2694 -1.155,4.8976" />
      <path
         inkscape:connector-curvature="0"
         id="path132-5-3-3"
         style="display:inline;fill:#a13028;fill-opacity:1;fill-rule:nonzero;stroke:none;stroke-width:1.89101708"
         d="m 18367.269,6288.2571 30.374,3.9583 c 0.24,-1.8671 0.467,-3.7451 0.673,-5.6207 l -30.446,-3.3467 c -0.188,1.6716 -0.387,3.343 -0.601,5.0091" />
      <path
         inkscape:connector-curvature="0"
         id="path134-6-1-2"
         style="display:inline;fill:#a13028;fill-opacity:1;fill-rule:nonzero;stroke:none;stroke-width:1.89101708"
         d="m 18340.727,6374.839 27.323,13.8236 c 0.857,-1.6794 1.685,-3.3753 2.5,-5.0644 l -27.611,-13.2638 c -0.725,1.5058 -1.456,3.0049 -2.212,4.5046" />
      <path
         inkscape:connector-curvature="0"
         id="path136-9-7-7"
         style="display:inline;fill:#a13028;fill-opacity:1;fill-rule:nonzero;stroke:none;stroke-width:1.89101708"
         d="m 18333.493,6388.1972 26.509,15.3508 c 0.942,-1.641 1.875,-3.2785 2.784,-4.9256 l -26.809,-14.8123 c -0.807,1.4668 -1.64,2.927 -2.484,4.3871" />
      <path
         inkscape:connector-curvature="0"
         id="path138-3-7-7"
         style="display:inline;fill:#a13028;fill-opacity:1;fill-rule:nonzero;stroke:none;stroke-width:1.89101708"
         d="m 18352.801,6347.0847 28.738,10.6273 c 0.641,-1.7544 1.284,-3.5173 1.899,-5.2815 l -28.932,-10.1077 c -0.557,1.5948 -1.119,3.183 -1.705,4.7619" />
      <path
         inkscape:connector-curvature="0"
         id="path140-7-1-9"
         style="display:inline;fill:#a13028;fill-opacity:1;fill-rule:nonzero;stroke:none;stroke-width:1.89101708"
         d="m 18347.157,6361.133 28.072,12.2574 c 0.756,-1.7317 1.492,-3.4581 2.205,-5.2076 l -28.322,-11.6775 c -0.629,1.5551 -1.279,3.0957 -1.955,4.6277" />
      <path
         inkscape:connector-curvature="0"
         id="path142-4-9-6"
         style="display:inline;fill:#a13028;fill-opacity:1;fill-rule:nonzero;stroke:none;stroke-width:1.89101708"
         d="m 18357.657,6332.7219 29.28,8.9924 c 0.548,-1.7982 1.083,-3.6007 1.601,-5.4068 l -29.443,-8.4277 c -0.47,1.6184 -0.941,3.2352 -1.438,4.8421" />
      <path
         inkscape:connector-curvature="0"
         id="path144-5-7-4"
         style="display:inline;fill:#a13028;fill-opacity:1;fill-rule:nonzero;stroke:none;stroke-width:1.89101708"
         d="m 17889.731,6088.3462 -24.112,-18.91 c 1.153,-1.4656 2.319,-2.9312 3.52,-4.3963 l 23.755,19.3353 c -1.065,1.3237 -2.127,2.6231 -3.163,3.971" />
      <path
         inkscape:connector-curvature="0"
         id="path146-2-8-5"
         style="display:inline;fill:#a13028;fill-opacity:1;fill-rule:nonzero;stroke:none;stroke-width:1.89101708"
         d="m 17864.779,6126.4033 -26.954,-14.5381 c 0.902,-1.6544 1.804,-3.3095 2.735,-4.9396 l 26.661,15.0565 c -0.821,1.4656 -1.646,2.9556 -2.442,4.4212" />
      <path
         inkscape:connector-curvature="0"
         id="path148-5-4-2"
         style="display:inline;fill:#a13028;fill-opacity:1;fill-rule:nonzero;stroke:none;stroke-width:1.89101708"
         d="m 17857.956,6139.9468 -27.746,-12.9537 c 0.796,-1.702 1.614,-3.4041 2.445,-5.1055 l 27.498,13.5203 c -0.755,1.5132 -1.483,3.0257 -2.197,4.5389" />
      <path
         inkscape:connector-curvature="0"
         id="path150-4-7-0"
         style="display:inline;fill:#a13028;fill-opacity:1;fill-rule:nonzero;stroke:none;stroke-width:1.89101708"
         d="m 17851.9,6153.9403 -28.423,-11.4161 c 0.692,-1.7496 1.419,-3.4985 2.141,-5.2249 l 28.223,11.9134 c -0.66,1.5844 -1.317,3.1445 -1.941,4.7276" />
      <path
         inkscape:connector-curvature="0"
         id="path152-7-4-5"
         style="display:inline;fill:#a13028;fill-opacity:1;fill-rule:nonzero;stroke:none;stroke-width:1.89101708"
         d="m 17872.364,6113.2607 -26.075,-16.0506 c 0.989,-1.6075 1.983,-3.2152 3.007,-4.7983 l 25.768,16.569 c -0.919,1.4188 -1.813,2.8369 -2.7,4.2799" />
      <path
         inkscape:connector-curvature="0"
         id="path154-4-7-7"
         style="display:inline;fill:#a13028;fill-opacity:1;fill-rule:nonzero;stroke:none;stroke-width:1.89101708"
         d="m 17880.692,6100.566 -25.124,-17.5145 c 1.07,-1.5376 2.159,-3.0727 3.263,-4.6101 l 24.798,17.9896 c -0.992,1.3706 -1.967,2.7417 -2.937,4.135" />
      <path
         inkscape:connector-curvature="0"
         id="path156-4-0-9"
         style="display:inline;fill:#a13028;fill-opacity:1;fill-rule:nonzero;stroke:none;stroke-width:1.89101708"
         d="m 17846.66,6168.2172 -29.047,-9.7386 c 0.589,-1.7964 1.211,-3.5928 1.848,-5.365 l 28.849,10.2815 c -0.561,1.6075 -1.117,3.2151 -1.65,4.8221" />
      <path
         inkscape:connector-curvature="0"
         id="path158-3-9-0"
         style="display:inline;fill:#a13028;fill-opacity:1;fill-rule:nonzero;stroke:none;stroke-width:1.89101708"
         d="m 17835.888,6212.5389 -30.273,-4.7046 c 0.294,-1.844 0.594,-3.7104 0.915,-5.5543 l 30.185,5.2235 c -0.291,1.6789 -0.565,3.3333 -0.827,5.0354" />
      <path
         inkscape:connector-curvature="0"
         id="path160-0-1-2"
         style="display:inline;fill:#a13028;fill-opacity:1;fill-rule:nonzero;stroke:none;stroke-width:1.89101708"
         d="m 17832.962,6242.7707 -30.617,-1.2286 c 0.08,-1.8671 0.171,-3.758 0.284,-5.6488 l 30.575,1.8189 c -0.1,1.6796 -0.17,3.3815 -0.242,5.0585" />
      <path
         inkscape:connector-curvature="0"
         id="path162-7-1-0"
         style="display:inline;fill:#a13028;fill-opacity:1;fill-rule:nonzero;stroke:none;stroke-width:1.89101708"
         d="m 17833.999,6227.6198 -30.493,-2.9556 c 0.169,-1.8666 0.378,-3.7574 0.6,-5.6257 l 30.424,3.5227 c -0.189,1.6777 -0.366,3.3565 -0.531,5.0586" />
      <path
         inkscape:connector-curvature="0"
         id="path164-8-3-4"
         style="display:inline;fill:#a13028;fill-opacity:1;fill-rule:nonzero;stroke:none;stroke-width:1.89101708"
         d="m 17842.226,6182.7778 -29.551,-8.0841 c 0.505,-1.819 1.009,-3.6154 1.546,-5.4362 l 29.39,8.6287 c -0.486,1.6301 -0.938,3.262 -1.385,4.8916" />
      <path
         inkscape:connector-curvature="0"
         id="path166-6-3-4"
         style="display:inline;fill:#a13028;fill-opacity:1;fill-rule:nonzero;stroke:none;stroke-width:1.89101708"
         d="m 17838.638,6197.5755 -29.967,-6.4053 c 0.396,-1.8439 0.812,-3.6647 1.228,-5.5086 l 29.842,6.9499 c -0.381,1.6326 -0.758,3.2863 -1.103,4.964" />
      <path
         inkscape:connector-curvature="0"
         id="path168-8-9-4"
         style="display:inline;fill:#a13028;fill-opacity:1;fill-rule:nonzero;stroke:none;stroke-width:1.89101708"
         d="m 17876.71,6401.1223 -25.593,16.828 c -1.028,-1.5747 -2.054,-3.1578 -3.056,-4.7538 l 25.923,-16.331 c 0.891,1.428 1.806,2.8461 2.726,4.2568" />
      <path
         inkscape:connector-curvature="0"
         id="path170-8-9-9"
         style="display:inline;fill:#a13028;fill-opacity:1;fill-rule:nonzero;stroke:none;stroke-width:1.89101708"
         d="m 17894.797,6425.4898 -23.506,19.6442 c -1.217,-1.4541 -2.414,-2.9118 -3.582,-4.3854 l 23.897,-19.1597 c 1.05,1.3103 2.106,2.6095 3.191,3.9009" />
      <path
         inkscape:connector-curvature="0"
         id="path172-4-2-7"
         style="display:inline;fill:#a13028;fill-opacity:1;fill-rule:nonzero;stroke:none;stroke-width:1.89101708"
         d="m 17885.42,6413.5809 -24.611,18.235 c -1.119,-1.5095 -2.223,-3.0165 -3.307,-4.5485 l 24.929,-17.7965 c 0.98,1.3791 1.978,2.7485 2.989,4.11" />
      <path
         inkscape:connector-curvature="0"
         id="path174-3-9-7"
         style="display:inline;fill:#a13028;fill-opacity:1;fill-rule:nonzero;stroke:none;stroke-width:1.89101708"
         d="m 17837.335,6303.2814 -30.109,5.6047 c -0.343,-1.8438 -0.673,-3.6799 -0.983,-5.5365 l 30.211,-5.0646 c 0.276,1.666 0.572,3.3303 0.881,4.9964" />
      <path
         inkscape:connector-curvature="0"
         id="path176-1-2-1"
         style="display:inline;fill:#a13028;fill-opacity:1;fill-rule:nonzero;stroke:none;stroke-width:1.89101708"
         d="m 17833.45,6273.1592 -30.56,2.2123 c -0.136,-1.878 -0.244,-3.7536 -0.348,-5.6371 l 30.581,-1.624 c 0.1,1.6867 0.203,3.3748 0.327,5.0488" />
      <path
         inkscape:connector-curvature="0"
         id="path178-4-0-1"
         style="display:inline;fill:#a13028;fill-opacity:1;fill-rule:nonzero;stroke:none;stroke-width:1.89101708"
         d="m 17832.744,6252.9163 c 0,1.6867 0,3.3656 0.04,5.0522 l -30.635,0.5033 c -0.01,-1.8739 -0.04,-3.7593 -0.04,-5.6463 l 30.64,0.094" />
      <path
         inkscape:connector-curvature="0"
         id="path180-9-3-0"
         style="display:inline;fill:#a13028;fill-opacity:1;fill-rule:nonzero;stroke:none;stroke-width:1.89101708"
         d="m 17840.536,6318.0856 -29.736,7.3508 c -0.449,-1.8287 -0.881,-3.6648 -1.294,-5.5031 l 29.874,-6.7453 c 0.371,1.6437 0.765,3.2694 1.156,4.8976" />
      <path
         inkscape:connector-curvature="0"
         id="path182-2-9-0"
         style="display:inline;fill:#a13028;fill-opacity:1;fill-rule:nonzero;stroke:none;stroke-width:1.89101708"
         d="m 17834.963,6288.2571 -30.374,3.9583 c -0.24,-1.8671 -0.468,-3.7451 -0.672,-5.6207 l 30.444,-3.3467 c 0.19,1.6716 0.388,3.343 0.602,5.0091" />
      <path
         inkscape:connector-curvature="0"
         id="path184-0-7-6"
         style="display:inline;fill:#a13028;fill-opacity:1;fill-rule:nonzero;stroke:none;stroke-width:1.89101708"
         d="m 17861.505,6374.839 -27.323,13.8236 c -0.856,-1.6794 -1.685,-3.3753 -2.5,-5.0644 l 27.611,-13.2638 c 0.726,1.5058 1.456,3.0049 2.212,4.5046" />
      <path
         inkscape:connector-curvature="0"
         id="path186-6-9-7"
         style="display:inline;fill:#a13028;fill-opacity:1;fill-rule:nonzero;stroke:none;stroke-width:1.89101708"
         d="m 17868.738,6388.1972 -26.508,15.3508 c -0.942,-1.641 -1.874,-3.2785 -2.783,-4.9256 l 26.809,-14.8123 c 0.807,1.4668 1.639,2.927 2.482,4.3871" />
      <path
         inkscape:connector-curvature="0"
         id="path188-8-4-2"
         style="display:inline;fill:#a13028;fill-opacity:1;fill-rule:nonzero;stroke:none;stroke-width:1.89101708"
         d="m 17849.432,6347.0847 -28.738,10.6273 c -0.641,-1.7544 -1.284,-3.5173 -1.899,-5.2815 l 28.93,-10.1077 c 0.558,1.5948 1.119,3.183 1.707,4.7619" />
      <path
         inkscape:connector-curvature="0"
         id="path190-9-7-8"
         style="display:inline;fill:#a13028;fill-opacity:1;fill-rule:nonzero;stroke:none;stroke-width:1.89101708"
         d="m 17855.075,6361.133 -28.071,12.2574 c -0.756,-1.7317 -1.492,-3.4581 -2.205,-5.2076 l 28.322,-11.6775 c 0.63,1.5551 1.278,3.0957 1.954,4.6277" />
      <path
         inkscape:connector-curvature="0"
         id="path192-2-5-7"
         style="display:inline;fill:#a13028;fill-opacity:1;fill-rule:nonzero;stroke:none;stroke-width:1.89101708"
         d="m 17844.574,6332.7219 -29.278,8.9924 c -0.548,-1.7982 -1.085,-3.6007 -1.603,-5.4068 l 29.445,-8.4277 c 0.469,1.6184 0.94,3.2352 1.436,4.8421" />
      <path
         inkscape:connector-curvature="0"
         id="path194-6-8-0"
         style="display:inline;fill:#a13028;fill-opacity:1;fill-rule:nonzero;stroke:none;stroke-width:1.89101708"
         d="m 18244.398,6481.5074 16.394,25.8733 c 1.589,-0.9965 3.162,-2.0175 4.739,-3.0598 l -16.862,-25.5632 c -1.426,0.9343 -2.844,1.8426 -4.271,2.7497" />
      <path
         inkscape:connector-curvature="0"
         id="path196-6-0-8"
         style="display:inline;fill:#a13028;fill-opacity:1;fill-rule:nonzero;stroke:none;stroke-width:1.89101708"
         d="m 18231.351,6489.2529 14.875,26.7772 c 1.645,-0.915 3.281,-1.8475 4.922,-2.7929 l -15.409,-26.482 c -1.448,0.8438 -2.911,1.6807 -4.388,2.4977" />
      <path
         inkscape:connector-curvature="0"
         id="path198-4-0-9"
         style="display:inline;fill:#a13028;fill-opacity:1;fill-rule:nonzero;stroke:none;stroke-width:1.89101708"
         d="m 18217.86,6496.2502 13.342,27.5711 c 1.697,-0.8139 3.371,-1.649 5.05,-2.4909 l -13.832,-27.3347 c -1.508,0.7681 -3.036,1.5168 -4.56,2.2545" />
      <path
         inkscape:connector-curvature="0"
         id="path200-9-9-7"
         style="display:inline;fill:#a13028;fill-opacity:1;fill-rule:nonzero;stroke:none;stroke-width:1.89101708"
         d="m 18257,6473.0188 17.83,24.9146 c 1.519,-1.0874 3.04,-2.1962 4.55,-3.3212 l -18.284,-24.5698 c -1.357,1.0009 -2.724,2.001 -4.096,2.9764" />
      <path
         inkscape:connector-curvature="0"
         id="path202-5-9-1"
         style="display:inline;fill:#a13028;fill-opacity:1;fill-rule:nonzero;stroke:none;stroke-width:1.89101708"
         d="m 18203.978,6502.4794 11.723,28.2911 c 1.745,-0.7169 3.482,-1.4582 5.223,-2.2143 l -12.285,-28.0723 c -1.549,0.6828 -3.1,1.3504 -4.661,1.9955" />
      <path
         inkscape:connector-curvature="0"
         id="path204-0-1-7"
         style="display:inline;fill:#a13028;fill-opacity:1;fill-rule:nonzero;stroke:none;stroke-width:1.89101708"
         d="m 18189.736,6507.9004 10.122,28.9172 c 1.772,-0.6219 3.542,-1.2517 5.311,-1.9096 l -10.634,-28.7243 c -1.598,0.5915 -3.199,1.1648 -4.799,1.7167" />
      <path
         inkscape:connector-curvature="0"
         id="path206-4-9-4"
         style="display:inline;fill:#a13028;fill-opacity:1;fill-rule:nonzero;stroke:none;stroke-width:1.89101708"
         d="m 18145.575,6519.2069 5.058,30.2185 c 1.853,-0.3157 3.715,-0.6409 5.552,-0.9966 l -5.612,-30.0954 c -1.669,0.3033 -3.336,0.5975 -4.998,0.8735" />
      <path
         inkscape:connector-curvature="0"
         id="path208-8-6-3"
         style="display:inline;fill:#a13028;fill-opacity:1;fill-rule:nonzero;stroke:none;stroke-width:1.89101708"
         d="m 18160.506,6516.2817 6.756,29.8743 c 1.836,-0.4185 3.661,-0.8454 5.486,-1.2957 l -7.297,-29.7494 c -1.645,0.4051 -3.296,0.7882 -4.945,1.1708" />
      <path
         inkscape:connector-curvature="0"
         id="path210-7-9-6"
         style="display:inline;fill:#a13028;fill-opacity:1;fill-rule:nonzero;stroke:none;stroke-width:1.89101708"
         d="m 18175.229,6512.5086 8.461,29.4431 c 1.802,-0.5234 3.605,-1.0472 5.406,-1.601 l -8.98,-29.2889 c -1.627,0.4941 -3.25,0.9838 -4.887,1.4468" />
      <path
         inkscape:connector-curvature="0"
         id="path212-1-7-3"
         style="display:inline;fill:#a13028;fill-opacity:1;fill-rule:nonzero;stroke:none;stroke-width:1.89101708"
         d="m 18131.452,6529.6419 2.387,21.8089 c 1.864,-0.2023 3.732,-0.4276 5.601,-0.6658 l -2.928,-22.8245 c -1.601,0.8449 -3.316,1.3706 -5.06,1.6814" />
      <path
         inkscape:connector-curvature="0"
         id="path214-7-4-0"
         style="display:inline;fill:#a13028;fill-opacity:1;fill-rule:nonzero;stroke:none;stroke-width:1.89101708"
         d="m 18120.572,6527.6883 c -1.994,-1.0856 -3.706,-2.5092 -5.141,-4.1436 l 1.516,28.9631 c 1.887,-0.094 3.771,-0.2023 5.649,-0.3424 l -1.755,-24.3712 c -0.1,-0.037 -0.188,-0.055 -0.269,-0.1145" />
      <path
         inkscape:connector-curvature="0"
         id="path216-2-5-2"
         style="display:inline;fill:#a13028;fill-opacity:1;fill-rule:nonzero;stroke:none;stroke-width:1.89101708"
         d="m 17957.835,6481.5074 -16.396,25.8733 c -1.589,-0.9965 -3.162,-2.0175 -4.737,-3.0598 l 16.861,-25.5632 c 1.427,0.9343 2.845,1.8426 4.272,2.7497" />
      <path
         inkscape:connector-curvature="0"
         id="path218-7-7-2"
         style="display:inline;fill:#a13028;fill-opacity:1;fill-rule:nonzero;stroke:none;stroke-width:1.89101708"
         d="m 17970.882,6489.2529 -14.875,26.7772 c -1.645,-0.915 -3.279,-1.8475 -4.923,-2.7929 l 15.408,-26.482 c 1.45,0.8438 2.913,1.6807 4.39,2.4977" />
      <path
         inkscape:connector-curvature="0"
         id="path220-2-4-1"
         style="display:inline;fill:#a13028;fill-opacity:1;fill-rule:nonzero;stroke:none;stroke-width:1.89101708"
         d="m 17984.372,6496.2502 -13.342,27.5711 c -1.697,-0.8139 -3.37,-1.649 -5.05,-2.4909 l 13.833,-27.3347 c 1.507,0.7681 3.035,1.5168 4.559,2.2545" />
      <path
         inkscape:connector-curvature="0"
         id="path222-2-9-1"
         style="display:inline;fill:#a13028;fill-opacity:1;fill-rule:nonzero;stroke:none;stroke-width:1.89101708"
         d="m 17945.233,6473.0188 -17.83,24.9146 c -1.519,-1.0874 -3.04,-2.1962 -4.55,-3.3212 l 18.282,-24.5698 c 1.359,1.0009 2.729,2.001 4.098,2.9764" />
      <path
         inkscape:connector-curvature="0"
         id="path224-6-1-7"
         style="display:inline;fill:#a13028;fill-opacity:1;fill-rule:nonzero;stroke:none;stroke-width:1.89101708"
         d="m 17998.255,6502.4794 -11.723,28.2911 c -1.747,-0.7169 -3.484,-1.4582 -5.223,-2.2143 l 12.285,-28.0723 c 1.551,0.6828 3.1,1.3504 4.661,1.9955" />
      <path
         inkscape:connector-curvature="0"
         id="path226-1-7-7"
         style="display:inline;fill:#a13028;fill-opacity:1;fill-rule:nonzero;stroke:none;stroke-width:1.89101708"
         d="m 18012.495,6507.9004 -10.12,28.9172 c -1.772,-0.6219 -3.542,-1.2517 -5.313,-1.9096 l 10.636,-28.7243 c 1.598,0.5915 3.199,1.1648 4.797,1.7167" />
      <path
         inkscape:connector-curvature="0"
         id="path228-0-8-6"
         style="display:inline;fill:#a13028;fill-opacity:1;fill-rule:nonzero;stroke:none;stroke-width:1.89101708"
         d="m 18056.658,6519.2069 -5.059,30.2185 c -1.854,-0.3157 -3.715,-0.6409 -5.553,-0.9966 l 5.614,-30.0954 c 1.669,0.3033 3.336,0.5975 4.998,0.8735" />
      <path
         inkscape:connector-curvature="0"
         id="path230-6-2-8"
         style="display:inline;fill:#a13028;fill-opacity:1;fill-rule:nonzero;stroke:none;stroke-width:1.89101708"
         d="m 18041.73,6516.2817 -6.759,29.8743 c -1.838,-0.4185 -3.661,-0.8454 -5.486,-1.2957 l 7.297,-29.7494 c 1.645,0.4051 3.296,0.7882 4.948,1.1708" />
      <path
         inkscape:connector-curvature="0"
         id="path232-1-1-5"
         style="display:inline;fill:#a13028;fill-opacity:1;fill-rule:nonzero;stroke:none;stroke-width:1.89101708"
         d="m 18027.004,6512.5086 -8.463,29.4431 c -1.8,-0.5234 -3.605,-1.0472 -5.404,-1.601 l 8.981,-29.2889 c 1.626,0.4941 3.248,0.9838 4.886,1.4468" />
      <path
         inkscape:connector-curvature="0"
         id="path234-5-8-8"
         style="display:inline;fill:#a13028;fill-opacity:1;fill-rule:nonzero;stroke:none;stroke-width:1.89101708"
         d="m 18070.78,6529.6419 -2.388,21.8089 c -1.863,-0.2023 -3.73,-0.4276 -5.599,-0.6658 l 2.928,-22.8245 c 1.603,0.8449 3.315,1.3706 5.059,1.6814" />
      <path
         inkscape:connector-curvature="0"
         id="path236-9-1-4"
         style="display:inline;fill:#a13028;fill-opacity:1;fill-rule:nonzero;stroke:none;stroke-width:1.89101708"
         d="m 18081.659,6527.6883 c 1.996,-1.0856 3.708,-2.5092 5.143,-4.1436 l -1.517,28.9631 c -1.888,-0.094 -3.771,-0.2023 -5.648,-0.3424 l 1.754,-24.3712 c 0.1,-0.037 0.188,-0.055 0.268,-0.1145" />
      <path
         inkscape:connector-curvature="0"
         id="path238-4-8-3"
         style="display:inline;fill:#a13028;fill-opacity:1;fill-rule:nonzero;stroke:none;stroke-width:1.89101708"
         d="m 18098.406,6553.7802 h 5.421 v -31.3813 h -5.421 z" />
      <path
         inkscape:connector-curvature="0"
         id="path240-9-6-4"
         style="display:inline;fill:#a13028;fill-opacity:1;fill-rule:nonzero;stroke:none;stroke-width:1.89101708"
         d="m 17957.835,6028.6604 -16.396,-25.8598 c -1.589,0.9928 -3.162,2.0101 -4.737,3.0504 l 16.861,25.5756 c 1.427,-0.9454 2.845,-1.8433 4.272,-2.7662" />
      <path
         inkscape:connector-curvature="0"
         id="path242-0-8-4"
         style="display:inline;fill:#a13028;fill-opacity:1;fill-rule:nonzero;stroke:none;stroke-width:1.89101708"
         d="m 17970.882,6020.9314 -14.875,-26.7822 c -1.645,0.9229 -3.279,1.844 -4.923,2.7894 l 15.408,26.4739 c 1.45,-0.8261 2.913,-1.677 4.39,-2.4811" />
      <path
         inkscape:connector-curvature="0"
         id="path244-9-4-6"
         style="display:inline;fill:#a13028;fill-opacity:1;fill-rule:nonzero;stroke:none;stroke-width:1.89101708"
         d="m 17984.372,6013.9347 -13.342,-27.5858 c -1.697,0.8279 -3.37,1.6545 -5.05,2.5056 l 13.833,27.3249 c 1.507,-0.7559 3.035,-1.5125 4.559,-2.2447" />
      <path
         inkscape:connector-curvature="0"
         id="path246-1-2-1"
         style="display:inline;fill:#a13028;fill-opacity:1;fill-rule:nonzero;stroke:none;stroke-width:1.89101708"
         d="m 17945.233,6037.1697 -17.83,-24.9364 c -1.519,1.0872 -3.04,2.1972 -4.55,3.3315 l 18.282,24.5605 c 1.359,-0.9922 2.726,-1.9851 4.098,-2.9556" />
      <path
         inkscape:connector-curvature="0"
         id="path248-7-0-6"
         style="display:inline;fill:#a13028;fill-opacity:1;fill-rule:nonzero;stroke:none;stroke-width:1.89101708"
         d="m 17998.255,6007.6945 -11.723,-28.2954 c -1.747,0.734 -3.484,1.4656 -5.223,2.2222 l 12.285,28.0815 c 1.551,-0.6846 3.1,-1.3462 4.661,-2.0083" />
      <path
         inkscape:connector-curvature="0"
         id="path250-7-1-8"
         style="display:inline;fill:#a13028;fill-opacity:1;fill-rule:nonzero;stroke:none;stroke-width:1.89101708"
         d="m 18012.495,6002.2809 -10.12,-28.9082 c -1.772,0.6146 -3.542,1.2293 -5.313,1.8908 l 10.636,28.7437 c 1.598,-0.6147 3.199,-1.1818 4.797,-1.7263" />
      <path
         inkscape:connector-curvature="0"
         id="path252-1-8-3"
         style="display:inline;fill:#a13028;fill-opacity:1;fill-rule:nonzero;stroke:none;stroke-width:1.89101708"
         d="m 18056.658,5990.9591 -5.059,-30.2087 c -1.854,0.3306 -3.715,0.6372 -5.553,0.9922 l 5.614,30.09 c 1.669,-0.2832 3.336,-0.5896 4.998,-0.8735" />
      <path
         inkscape:connector-curvature="0"
         id="path254-1-3-7"
         style="display:inline;fill:#a13028;fill-opacity:1;fill-rule:nonzero;stroke:none;stroke-width:1.89101708"
         d="m 18041.727,5993.8903 -6.756,-29.8785 c -1.838,0.4258 -3.661,0.8515 -5.486,1.2994 l 7.297,29.7609 c 1.645,-0.4026 3.296,-0.8035 4.945,-1.1818" />
      <path
         inkscape:connector-curvature="0"
         id="path256-5-2-2"
         style="display:inline;fill:#a13028;fill-opacity:1;fill-rule:nonzero;stroke:none;stroke-width:1.89101708"
         d="m 18027.004,5997.672 -8.463,-29.4528 c -1.8,0.5203 -3.605,1.063 -5.404,1.6076 l 8.981,29.2865 c 1.626,-0.4953 3.248,-0.9929 4.886,-1.4413" />
      <path
         inkscape:connector-curvature="0"
         id="path258-9-8-5"
         style="display:inline;fill:#a13028;fill-opacity:1;fill-rule:nonzero;stroke:none;stroke-width:1.89101708"
         d="m 18070.78,5980.5339 -2.388,-21.8164 c -1.863,0.2115 -3.73,0.4253 -5.599,0.6842 l 2.928,22.8117 c 1.601,-0.8516 3.315,-1.3713 5.059,-1.6795" />
      <path
         inkscape:connector-curvature="0"
         id="path260-7-1-3"
         style="display:inline;fill:#a13028;fill-opacity:1;fill-rule:nonzero;stroke:none;stroke-width:1.89101708"
         d="m 18081.659,5982.4966 c 1.996,1.0874 3.708,2.5061 5.143,4.1357 l -1.517,-28.9551 c -1.888,0.095 -3.771,0.1889 -5.648,0.3307 l 1.754,24.37 c 0.1,0.037 0.188,0.075 0.268,0.1131" />
      <path
         inkscape:connector-curvature="0"
         id="path262-7-4-4"
         style="display:inline;fill:#a13028;fill-opacity:1;fill-rule:nonzero;stroke:none;stroke-width:1.89101708"
         d="m 18244.398,6028.6604 16.394,-25.8598 c 1.589,0.9928 3.162,2.0101 4.739,3.0504 l -16.862,25.5756 c -1.426,-0.9454 -2.844,-1.8433 -4.271,-2.7662" />
      <path
         inkscape:connector-curvature="0"
         id="path264-6-4-8"
         style="display:inline;fill:#a13028;fill-opacity:1;fill-rule:nonzero;stroke:none;stroke-width:1.89101708"
         d="m 18231.351,6020.9314 14.875,-26.7822 c 1.645,0.9229 3.278,1.844 4.922,2.7894 l -15.409,26.4739 c -1.448,-0.8261 -2.911,-1.677 -4.388,-2.4811" />
      <path
         inkscape:connector-curvature="0"
         id="path266-7-0-4"
         style="display:inline;fill:#a13028;fill-opacity:1;fill-rule:nonzero;stroke:none;stroke-width:1.89101708"
         d="m 18217.86,6013.9347 13.342,-27.5858 c 1.697,0.8279 3.371,1.6545 5.05,2.5056 l -13.832,27.3249 c -1.508,-0.7559 -3.036,-1.5125 -4.56,-2.2447" />
      <path
         inkscape:connector-curvature="0"
         id="path268-3-2-5"
         style="display:inline;fill:#a13028;fill-opacity:1;fill-rule:nonzero;stroke:none;stroke-width:1.89101708"
         d="m 18257,6037.1697 17.83,-24.9364 c 1.519,1.0872 3.04,2.1972 4.55,3.3315 l -18.284,24.5605 c -1.357,-0.9922 -2.728,-1.9851 -4.096,-2.9556" />
      <path
         inkscape:connector-curvature="0"
         id="path270-6-9-7"
         style="display:inline;fill:#a13028;fill-opacity:1;fill-rule:nonzero;stroke:none;stroke-width:1.89101708"
         d="m 18203.978,6007.6945 11.723,-28.2954 c 1.745,0.734 3.482,1.4656 5.223,2.2222 l -12.285,28.0815 c -1.549,-0.6846 -3.1,-1.3462 -4.661,-2.0083" />
      <path
         inkscape:connector-curvature="0"
         id="path272-5-0-9"
         style="display:inline;fill:#a13028;fill-opacity:1;fill-rule:nonzero;stroke:none;stroke-width:1.89101708"
         d="m 18189.736,6002.2809 10.122,-28.9082 c 1.772,0.6146 3.542,1.2293 5.311,1.8908 l -10.634,28.7437 c -1.598,-0.6147 -3.199,-1.1818 -4.799,-1.7263" />
      <path
         inkscape:connector-curvature="0"
         id="path274-6-7-7"
         style="display:inline;fill:#a13028;fill-opacity:1;fill-rule:nonzero;stroke:none;stroke-width:1.89101708"
         d="m 18145.575,5990.9591 5.058,-30.2087 c 1.853,0.3306 3.715,0.6372 5.552,0.9922 l -5.612,30.09 c -1.669,-0.2832 -3.336,-0.5896 -4.998,-0.8735" />
      <path
         inkscape:connector-curvature="0"
         id="path276-3-2-3"
         style="display:inline;fill:#a13028;fill-opacity:1;fill-rule:nonzero;stroke:none;stroke-width:1.89101708"
         d="m 18160.503,5993.8903 6.759,-29.8785 c 1.836,0.4258 3.661,0.8515 5.486,1.2994 l -7.297,29.7609 c -1.645,-0.4026 -3.296,-0.8035 -4.948,-1.1818" />
      <path
         inkscape:connector-curvature="0"
         id="path278-9-9-5"
         style="display:inline;fill:#a13028;fill-opacity:1;fill-rule:nonzero;stroke:none;stroke-width:1.89101708"
         d="m 18175.229,5997.672 8.461,-29.4528 c 1.802,0.5203 3.605,1.063 5.406,1.6076 l -8.98,29.2865 c -1.627,-0.4953 -3.25,-0.9929 -4.887,-1.4413" />
      <path
         inkscape:connector-curvature="0"
         id="path280-4-1-3"
         style="display:inline;fill:#a13028;fill-opacity:1;fill-rule:nonzero;stroke:none;stroke-width:1.89101708"
         d="m 18131.452,5980.5339 2.387,-21.8164 c 1.864,0.2115 3.732,0.4253 5.601,0.6842 l -2.928,22.8117 c -1.603,-0.8516 -3.316,-1.3713 -5.06,-1.6795" />
      <path
         inkscape:connector-curvature="0"
         id="path282-8-8-8"
         style="display:inline;fill:#a13028;fill-opacity:1;fill-rule:nonzero;stroke:none;stroke-width:1.89101708"
         d="m 18120.572,5982.4966 c -1.994,1.0874 -3.706,2.5061 -5.141,4.1357 l 1.516,-28.9551 c 1.887,0.095 3.771,0.1889 5.649,0.3307 l -1.755,24.37 c -0.1,0.037 -0.188,0.075 -0.269,0.1131" />
      <path
         inkscape:connector-curvature="0"
         id="path284-1-4-0"
         style="display:inline;fill:#a13028;fill-opacity:1;fill-rule:nonzero;stroke:none;stroke-width:1.89101708"
         d="m 18098.406,5987.7671 h 5.421 v -31.3814 h -5.421 z" />
      <path
         inkscape:connector-curvature="0"
         id="path214-79-0"
         style="display:inline;fill:#a13028;fill-opacity:1;fill-rule:evenodd;stroke:none;stroke-width:0.60402185"
         d="m 18305.221,6095.3534 c 17.903,21.7677 31.883,46.65 42.022,73.8786 9.316,26.4459 14.753,54.4568 14.753,83.2304 0,34.2145 -6.991,66.8793 -19.424,96.4436 -13.248,30.3275 -32.688,58.3597 -56.002,81.6661 -23.346,23.3539 -52.127,42.0228 -84.011,54.4641 -30.327,12.4244 -62.999,19.4394 -98.022,19.4394 -29.555,0 -58.337,-5.4508 -84.784,-14.7769 -28.001,-9.3335 -53.666,-23.3223 -75.434,-41.2137 l -6.218,-3.892 6.218,-3.8809 9.326,-6.2493 3.117,-2.3301 3.101,2.3301 c 20.228,15.5657 43.584,27.9969 68.467,36.5768 23.314,7.7717 49.753,11.6689 76.207,11.6689 31.891,0 62.226,-5.4512 90.221,-17.1385 28.78,-11.644 54.463,-28.7736 76.237,-49.7499 21.784,-21.7926 39.662,-46.6851 51.338,-74.6955 11.669,-27.2184 17.88,-57.547 17.88,-88.6622 0,-26.4466 -4.663,-51.3391 -12.435,-74.6766 -8.552,-24.8694 -21.01,-46.653 -37.327,-66.8916 l -2.334,-3.1086 2.334,-3.1054 6.217,-9.3268 3.89,-5.4696 4.663,5.4696" />
      <path
         inkscape:connector-curvature="0"
         id="path216-8-4"
         style="display:inline;fill:#a13028;fill-opacity:1;fill-rule:evenodd;stroke:none;stroke-width:0.60402185"
         d="m 18104.537,6001.2428 c 29.563,0 58.328,4.6638 85.556,13.9802 27.237,9.3421 52.902,23.3568 75.466,40.445 l 5.436,4.6954 -6.209,4.6632 -9.357,6.2072 -3.099,1.5606 -3.109,-2.3324 c -20.213,-15.5768 -43.551,-27.2185 -67.672,-35.7733 -24.119,-8.5752 -50.565,-12.4573 -77.012,-12.4573 -31.891,0 -62.218,6.2079 -89.447,17.1112 -29.563,11.6624 -55.229,28.7834 -76.989,49.7834 -21.774,21.7682 -38.903,47.4418 -51.329,75.4423 -11.693,27.2287 -17.91,56.7747 -17.91,87.8941 0,26.4533 4.671,51.3379 12.466,74.676 8.553,24.867 21.76,47.4411 37.327,66.8891 l 2.334,3.1147 -2.334,3.1085 -6.217,9.3163 -3.914,5.4716 -4.663,-4.6637 c -17.877,-22.5657 -31.891,-47.4577 -41.996,-74.6863 -9.319,-25.6646 -14.777,-54.4471 -14.777,-83.2262 0,-34.2121 7.786,-66.8825 20.219,-96.4467 12.435,-30.3183 31.891,-58.3354 55.228,-80.8913 24.12,-24.1194 52.12,-41.98 84.004,-55.2218 30.336,-12.4427 63.009,-18.6598 97.998,-18.6598 v 0" />
      <path
         inkscape:connector-curvature="0"
         id="path172-0-1-3"
         style="display:inline;fill:#a13028;fill-opacity:1;fill-rule:evenodd;stroke:none;stroke-width:0.60402185"
         d="m 18072.318,6263.3188 -2.984,-3.6842 c -8.637,-10.6651 -7.089,-25.5017 3.165,-33.8052 v 0 c 5.73,-4.6399 13.398,-6.0854 20.329,-4.2348 239.648,-192.0856 208.946,-125.4695 21.584,26.6536 0.03,6.7472 -2.654,14.347 -8.384,18.9875 v 0 c -10.255,8.3028 -25.422,6.3194 -33.71,-3.9169 v 0"
         sodipodi:nodetypes="cscccccccc"
         inkscape:transform-center-x="55.240691"
         inkscape:transform-center-y="-59.328851" />
      <path
         inkscape:connector-curvature="0"
         id="path172-0-4-2-1"
         style="display:inline;fill:#a13028;fill-opacity:1;fill-rule:evenodd;stroke:none;stroke-width:0.60402185"
         d="m 18087.706,6222.4462 h 4.741 c 13.724,0 24.282,10.5396 24.282,23.7333 v 0 c 0,7.3726 -3.704,14.2427 -9.503,18.4649 -1.536,307.1249 -33.986,241.3413 -34.296,0 -5.264,-4.2222 -9.481,-11.0923 -9.481,-18.4649 v 0 c 0,-13.1937 11.087,-23.7339 24.257,-23.7333 v 0"
         sodipodi:nodetypes="cscccccccc"
         inkscape:transform-center-x="-82.228546"
         inkscape:transform-center-y="0.23561301" />
    </g>
  </g>
</svg>
