<?xml version="1.0" encoding="UTF-8" standalone="no"?>
<!-- Created with Inkscape (http://www.inkscape.org/) -->

<svg
   xmlns:dc="http://purl.org/dc/elements/1.1/"
   xmlns:cc="http://creativecommons.org/ns#"
   xmlns:rdf="http://www.w3.org/1999/02/22-rdf-syntax-ns#"
   xmlns:svg="http://www.w3.org/2000/svg"
   xmlns="http://www.w3.org/2000/svg"
   xmlns:sodipodi="http://sodipodi.sourceforge.net/DTD/sodipodi-0.dtd"
   xmlns:inkscape="http://www.inkscape.org/namespaces/inkscape"
   width="150"
   height="100"
   viewBox="0 0 39.687499 26.458334"
   version="1.1"
   id="svg5614"
   inkscape:version="0.92.1 r15371"
   sodipodi:docname="boton_recorrido_copy.svg">
  <defs
     id="defs5608" />
  <sodipodi:namedview
     id="base"
     pagecolor="#ffffff"
     bordercolor="#666666"
     borderopacity="1.0"
     inkscape:pageopacity="0.0"
     inkscape:pageshadow="2"
     inkscape:zoom="3.959798"
     inkscape:cx="16.049244"
     inkscape:cy="82.85011"
     inkscape:document-units="mm"
     inkscape:current-layer="layer1"
     showgrid="false"
     units="px"
     inkscape:window-width="1920"
     inkscape:window-height="1051"
     inkscape:window-x="-9"
     inkscape:window-y="-9"
     inkscape:window-maximized="1" />
  <metadata
     id="metadata5611">
    <rdf:RDF>
      <cc:Work
         rdf:about="">
        <dc:format>image/svg+xml</dc:format>
        <dc:type
           rdf:resource="http://purl.org/dc/dcmitype/StillImage" />
        <dc:title></dc:title>
      </cc:Work>
    </rdf:RDF>
  </metadata>
  <g
     inkscape:label="Layer 1"
     inkscape:groupmode="layer"
     id="layer1"
     transform="translate(0,-270.54165)">
    <g
       transform="matrix(0.04880458,0,0,0.04880458,-862.88598,18.983958)"
       style="display:inline"
       id="g6456">
      <path
         inkscape:connector-curvature="0"
         id="path22-2-8-7"
         style="display:inline;fill:#a13028;fill-opacity:1;fill-rule:nonzero;stroke:none;stroke-width:1.90866375"
         d="m 18370.762,5244.6909 c -1.176,-0.2729 -2.347,-0.5363 -3.517,-0.7959 v -42.5154 c -34.731,-4.0178 -62.261,-23.1236 -69.028,-47.6414 h -411.877 c -6.766,24.5178 -34.297,43.6236 -69.029,47.6414 v 42.5154 c -1.168,0.2596 -2.34,0.523 -3.516,0.7922 -35.547,8.2071 -58.516,37.5949 -58.516,74.8653 v 209.3556 c 0,37.2742 22.97,66.6489 58.516,74.8559 1.176,0.2863 2.348,0.5477 3.516,0.8112 v 42.5158 c 34.732,4.0079 62.263,23.1172 69.029,47.6437 h 411.877 c 6.767,-24.5265 34.297,-43.6358 69.028,-47.6437 v -42.5158 c 1.17,-0.2635 2.341,-0.5249 3.517,-0.8112 35.547,-8.207 58.514,-37.5873 58.514,-74.8559 v -209.3556 c 0,-37.2743 -22.97,-66.6582 -58.514,-74.8616" />
      <path
         inkscape:connector-curvature="0"
         id="path24-7-9-4"
         style="display:inline;fill:#f9d47a;fill-opacity:1;fill-rule:nonzero;stroke:none;stroke-width:1.90866375"
         d="m 18364.319,5575.8727 c 22.409,-5.176 36.328,-23.1655 36.328,-46.9646 v -209.3556 c 0,-23.799 -13.919,-41.7959 -36.33,-46.9683 -9.928,-2.2905 -18.57,-3.8059 -25.703,-4.8022 v -41.9296 c -32.061,-3.136 -57.562,-20.8349 -63.021,-43.485 h -366.63 c -5.457,22.6501 -30.958,40.349 -63.021,43.485 v 41.9296 c -7.132,0.9963 -15.775,2.5117 -25.705,4.8022 -22.408,5.1724 -36.329,23.1693 -36.329,46.9683 v 209.3556 c 0,23.7991 13.921,41.7886 36.331,46.9646 9.928,2.2904 18.571,3.8173 25.703,4.7964 v 41.943 c 32.063,3.1246 57.564,20.8276 63.021,43.4928 h 366.63 c 5.459,-22.6652 30.96,-40.3682 63.021,-43.4928 v -41.943 c 7.133,-0.9791 15.775,-2.506 25.705,-4.7964" />
      <path
         inkscape:connector-curvature="0"
         id="path26-0-5-1"
         style="display:inline;fill:#a13028;fill-opacity:1;fill-rule:nonzero;stroke:none;stroke-width:1.90866375"
         d="m 17925.987,5642.2466 h 332.581 c 19.956,-31.1341 48.08,-37.3625 56.189,-38.5303 v -44.9508 l 2.355,-0.037 c 0.171,0 16.589,-0.2751 41.843,-6.106 11.834,-2.7293 17.833,-10.7133 17.833,-23.7169 v -209.3577 c 0,-13.0055 -5.999,-20.9876 -17.833,-23.7169 -25.254,-5.8311 -41.679,-6.1059 -41.843,-6.1059 l -2.355,-0.037 v -44.9606 c -8.109,-1.1719 -36.233,-7.3923 -56.189,-38.5092 h -332.581 c -19.954,31.1169 -48.078,37.3373 -56.188,38.5092 v 44.9606 l -2.352,0.037 c -0.173,0 -16.588,0.2748 -41.845,6.1059 -11.833,2.7293 -17.835,10.7114 -17.835,23.7169 v 209.3576 c 0,13.0036 6.002,20.9876 17.835,23.7169 25.257,5.8309 41.68,6.106 41.845,6.106 l 2.352,0.037 v 44.9508 c 8.11,1.1678 36.234,7.3962 56.188,38.5303 z m 335.222,4.7714 h -337.86 l -0.702,-1.145 c -21.768,-34.9283 -55.064,-37.6236 -55.394,-37.6485 l -2.226,-0.1527 v -44.6625 c -5.459,-0.2731 -20.001,-1.4125 -40.498,-6.1404 -13.885,-3.2065 -21.533,-13.2823 -21.533,-28.3703 v -209.3555 c 0,-15.088 7.648,-25.164 21.533,-28.3704 20.497,-4.7296 35.039,-5.8673 40.498,-6.1421 v -44.655 l 2.219,-0.1528 c 0.334,-0.02 33.699,-2.8058 55.401,-37.6504 l 0.702,-1.1241 h 337.86 l 0.699,1.1241 c 21.769,34.9419 55.065,37.6275 55.396,37.6504 l 2.225,0.1528 v 44.6607 c 5.46,0.2749 20.001,1.4123 40.498,6.1402 13.885,3.2065 21.532,13.2823 21.532,28.3703 v 209.3573 c 0,15.0881 -7.647,25.162 -21.532,28.3687 -20.497,4.7295 -35.038,5.8674 -40.498,6.142 v 44.6629 l -2.218,0.1527 c -0.335,0.02 -33.699,2.8151 -55.403,37.6485 l -0.699,1.1453" />
      <path
         inkscape:connector-curvature="0"
         id="path1432-0-5"
         style="display:inline;fill:#a13028;fill-opacity:1;fill-rule:nonzero;stroke:none;stroke-width:1.90866375"
         d="m 17891.496,5453.8479 c 0,0 0,0 0,0 v 0 0" />
      <path
         inkscape:connector-curvature="0"
         id="path198-2"
         style="display:inline;fill:#a13028;fill-opacity:1;fill-rule:evenodd;stroke:none;stroke-width:0.54909599"
         d="m 18140.211,5366.2579 32.873,-10.5772 v 18.3734 c -5.569,1.1068 -11.13,2.7969 -16.705,4.4775 -5.586,2.2141 -11.714,5.5619 -16.168,10.5705 v -22.8442" />
      <path
         inkscape:connector-curvature="0"
         id="path200-8"
         style="display:inline;fill:#a13028;fill-opacity:1;fill-rule:evenodd;stroke:none;stroke-width:0.54909599"
         d="m 18215.436,5265.9351 72.464,27.8774 0.554,0.5535 -0.554,0.5649 -73.017,32.8614 v 0 c -2.227,0 -4.454,-0.5472 -5.567,-2.2144 -1.12,-1.1204 -2.229,-2.7944 -2.789,-5.0216 v -46.2466 c 0,-3.3659 1.12,-5.0152 2.789,-6.7051 1.113,-1.1093 3.339,-1.6695 6.12,-1.6695 v 0" />
      <path
         inkscape:connector-curvature="0"
         id="path202-5"
         style="display:inline;fill:#a13028;fill-opacity:1;fill-rule:evenodd;stroke:none;stroke-width:0.54909599"
         d="m 18193.701,5416.9839 c 12.826,0 23.964,-1.6921 31.759,-5.0309 7.812,-2.788 12.269,-6.1291 12.269,-10.0235 0,-3.9014 -4.457,-7.2588 -12.269,-10.0351 -6.677,-2.7923 -15.597,-4.4593 -25.078,-4.4593 v 12.2665 c 0,1.6742 -1.107,3.8949 -2.222,5.0154 -1.672,1.6675 -3.346,2.2277 -5.567,2.2277 h -1.115 c -2.786,0 -5.014,-1.1208 -6.127,-2.7944 -1.673,-1.1028 -2.782,-3.3346 -2.782,-6.1222 v -10.593 c -7.818,1.1134 -15.054,2.2272 -20.615,4.4593 -7.819,2.7763 -11.721,6.1337 -11.721,10.0351 0,3.8944 3.902,7.2355 11.721,10.0235 7.788,3.3388 19.496,5.0309 31.747,5.0309 z m -3.895,-173.3377 h 2.787 c 6.682,0 12.245,5.5668 12.245,12.2608 v 0 c 0,3.9014 -1.652,7.2428 -4.456,9.4703 v 116.4889 c 10.047,0.5602 20.088,2.2273 27.323,5.5689 9.468,3.3407 15.037,8.3541 15.037,14.4944 0,6.1264 -5.569,11.135 -15.037,15.0544 -8.922,3.3414 -20.618,5.0132 -34.004,5.0132 -12.822,0 -25.072,-1.6718 -33.444,-5.0132 -10.024,-3.9194 -15.592,-8.928 -15.592,-15.0544 0,-6.1403 5.568,-11.1537 15.592,-14.4944 6.138,-2.7879 13.387,-4.4622 22.312,-5.0087 v -117.0491 c -3.334,-2.2275 -5.037,-5.5689 -5.037,-9.4703 v 0 c 0,-6.694 5.581,-12.2608 12.274,-12.2608 v 0" />
      <path
         inkscape:connector-curvature="0"
         id="path204-5"
         style="display:inline;fill:#a13028;fill-opacity:1;fill-rule:evenodd;stroke:none;stroke-width:0.54909599"
         d="m 18209.316,5343.4069 24.517,-7.7961 v 44.0279 c -1.12,-0.5599 -2.228,-0.5599 -2.787,-1.1071 -6.7,-2.2527 -13.935,-3.908 -21.73,-5.0148 v -30.1099" />
      <path
         inkscape:connector-curvature="0"
         id="path206-4"
         style="display:inline;fill:#a13028;fill-opacity:1;fill-rule:evenodd;stroke:none;stroke-width:0.54909599"
         d="m 18233.833,5424.2201 v 154.3695 l -93.622,30.6633 v -193.9611 c 4.454,4.4733 10.582,7.8145 16.168,10.0468 11.684,4.4499 25.071,6.1222 37.322,6.1222 12.267,0 25.648,-1.6723 37.345,-6.1222 0.559,-0.5652 1.667,-0.5652 2.787,-1.1185 v 0" />
      <path
         inkscape:connector-curvature="0"
         id="path208-9"
         style="display:inline;fill:#a13028;fill-opacity:1;fill-rule:evenodd;stroke:none;stroke-width:0.54909599"
         d="m 18128.497,5609.2529 -90.287,-29.5536 v -242.9681 l 90.287,29.5267 v 242.995" />
      <path
         inkscape:connector-curvature="0"
         id="path210-3"
         style="display:inline;fill:#a13028;fill-opacity:1;fill-rule:evenodd;stroke:none;stroke-width:0.54909599"
         d="m 18025.948,5581.9494 -90.275,29.5312 v -243.5558 l 90.275,-29.5265 v 243.5511" />
      <path
         inkscape:connector-curvature="0"
         id="path268-5"
         style="display:inline;fill:#f9d47a;fill-opacity:1;fill-rule:evenodd;stroke:none;stroke-width:0.32855752"
         d="m 18164.766,5582.4649 c 0.666,-0.9978 1.667,-2.3305 2.336,-3.6634 1.002,-1.6677 1.999,-3.3315 2.999,-5.3341 1.672,-3.0073 3.006,-6.3355 4.338,-9.3327 0.999,-2.0025 1.331,-4.0014 1.331,-5.0134 v -0.3243 c 0,-0.6772 0,-1.3399 -0.332,-2.0063 0,-0.6663 0,-1.3327 -0.332,-1.9993 -0.333,-0.6696 -0.667,-1.3326 -0.999,-1.6671 -0.334,-0.6633 -1,-1.333 -1.669,-1.6644 v 0 c -0.331,-0.67 -1.003,-0.9979 -1.336,-1.6678 -0.666,0 -1.333,-0.6661 -2.001,-0.6661 -0.664,-0.3313 -1.33,-0.6666 -1.999,-0.6666 -0.669,-0.3416 -1.337,-0.3416 -2.336,-0.3416 v 0 c -0.666,0 -1.332,0 -2,0.3416 -0.666,0 -1.331,0.3353 -1.999,0.6666 -0.666,0 -1.331,0.6661 -2.005,0.6661 -0.666,0.6699 -0.997,0.9978 -1.664,1.6678 -0.333,0.3314 -1,1.0011 -1.333,1.6644 -0.335,0.3345 -0.666,0.9975 -1.001,1.6671 -0.332,0.6666 -0.332,1.333 -0.672,1.9993 0,0.6664 0,1.3291 0,2.3306 0,1.3362 0.672,3.3424 1.673,6.0113 1,2.6619 2.331,5.6623 4.001,8.3348 1.335,2.3341 2.334,4.6682 3.668,6.3357 0.332,0.9977 0.998,1.9989 1.332,2.6618 z m -176.743,-145.0541 c 1.334,-2.0025 2.666,-4.3437 4.332,-7.0054 1.673,-3.0005 3.337,-6.0008 5.009,-9.3431 2.998,-5.6658 5.996,-11.6665 8.001,-16.6695 1.667,-3.9981 2.332,-7.3369 2.332,-9.6745 v -0.3346 c 0,-0.9981 0,-2.3309 -0.333,-3.6634 -0.332,-1.0013 -0.666,-2.3307 -0.999,-3.3319 -0.665,-1.336 -1,-2.3375 -1.67,-3.339 -1,-1.3361 -1.669,-2.0025 -2.666,-3.0003 v 0 c -1,-1.0013 -2,-1.6674 -2.999,-2.3338 -1,-0.6663 -2.34,-1.3328 -3.338,-1.999 -0.999,-0.3317 -2.332,-0.6665 -3.67,-0.9978 -1.333,-0.335 -2.665,-0.335 -3.999,-0.335 v 0 c -1.33,0 -2.665,0 -3.671,0.335 -1.331,0.3313 -2.666,0.6661 -3.664,0.9978 -1.338,0.6662 -2.338,1.3327 -3.336,1.999 -1.335,0.6664 -2.336,1.3325 -3,2.3338 -0.999,0.9978 -1.997,1.6642 -2.672,3.0003 -0.665,1.0015 -1.33,2.003 -1.665,3.339 -0.665,1.0012 -0.999,2.3306 -1.331,3.3319 0,1.3325 -0.334,2.6653 -0.334,3.998 0,2.3376 1.331,6.6775 3.33,11.0072 2.007,5.003 4.337,10.006 7.002,15.3368 2.342,4.0085 4.671,8.0067 6.676,11.3388 1,2.006 1.999,3.6701 2.665,5.0097 z m 1.666,8.6627 c -1.666,6.3426 -2.332,12.34 -1.666,18.0126 1,6.001 3.667,11.3388 8.667,16.0068 5.339,4.9996 13.013,9.336 24.679,13.003 11.34,3.6664 26.35,6.346 45.351,8.0065 h 1.007 l 0.334,0.3348 0.666,0.3353 c 4.669,4.6608 8.002,9.3257 9.334,13.3377 2.007,4.6609 2.335,9.0045 0.668,13.0027 -1.335,3.9982 -4.002,7.6645 -8.004,10.6722 -3.333,2.6689 -7.005,5.3307 -12.006,7.3334 8.673,5.6728 16.342,9.6708 23.678,12.6785 8.004,3.0003 15.344,4.333 22.008,4.333 7.008,0 13.344,-1.3327 19.014,-3.6631 6.337,-2.3449 11.672,-6.0081 17.002,-10.3409 l 1.332,-1.0082 1.672,1.0082 0.999,0.6661 1.335,0.6699 -0.667,1.6606 c -1.333,5.9972 -2.333,11.3423 -2.666,16.007 0,4.6609 0.333,8.3381 1.333,11.0034 0.999,2.3341 3.004,3.6667 5.335,4.6646 2.999,0.6699 7.004,0.349 12.007,-0.9979 v 0 c -1,-1.9989 -2.672,-4.6641 -4.003,-7.3297 -3.338,-6.0077 -6.336,-13.0063 -6.336,-16.3487 0,-1.0015 0,-1.9993 0.332,-2.9969 0,-1.0011 0.335,-1.6678 0.665,-2.6656 0.334,-0.6664 0.668,-1.6675 1.334,-2.3337 0.333,-0.6631 0.999,-1.333 1.671,-1.9991 0.666,-0.6666 1.334,-1.3328 2.334,-1.9992 0.667,-0.342 1.664,-0.6629 2.338,-1.0083 0.999,-0.3207 1.665,-0.6697 2.664,-1.0014 1.001,0 1.666,-0.3315 2.666,-0.3315 v 0 c 0.999,0 1.997,0.3315 3.005,0.3315 0.999,0.3317 1.664,0.6807 2.665,1.0014 0.666,0.3454 1.671,0.6663 2.336,1.0083 1.001,0.6664 1.667,1.3326 2.334,1.9992 0.999,1.336 2.332,2.6653 2.998,4.3328 0.336,0.9978 0.665,1.6645 0.665,2.3305 0.335,0.6666 0.335,1.0014 0.335,1.6678 v 1.6642 c 0,7.0091 -12.671,27.0208 -12.671,27.3556 v 0 c -1.001,1.3327 -0.334,0.9979 -2.001,1.6643 l -1.666,0.3351 c -6.336,1.6673 -11.672,1.9956 -15.338,0.9978 -4.336,-1.3329 -7.338,-3.995 -9.005,-8.007 -1.667,-3.3315 -1.999,-7.6616 -1.999,-12.6715 0.332,-3.3348 0.665,-6.6634 1.331,-10.337 -4.003,2.6725 -8.339,5.0063 -12.67,6.674 -6.336,2.3304 -13.006,3.9946 -20.68,3.9946 -7.33,-0.3316 -15.672,-1.6642 -24.673,-4.9925 -8.674,-3.3351 -18.009,-8.6767 -28.681,-16.3415 l -0.666,-0.6664 -3.333,-2.3412 3.667,-1.3361 1.001,-0.6629 c 6.333,-2.3375 11.003,-4.9993 14.668,-7.9998 3.338,-2.6757 5.675,-5.6761 6.675,-8.338 0.999,-3.011 0.999,-6.0113 -0.333,-9.0081 -1.338,-3.3283 -4.003,-7.0059 -7.341,-10.6726 -19.343,-1.6674 -34.347,-4.6677 -46.351,-8.3313 -12.006,-3.6734 -20.673,-8.6692 -26.683,-14.0109 -5.997,-5.6694 -9.002,-12.3364 -10.003,-19.3384 -1.328,-7.009 0,-14.3392 2.34,-22.0145 v -0.3313 c -2.005,-3.0003 -6.342,-10.3406 -10.672,-18.3371 -6.004,-11.0069 -11.673,-23.3437 -11.673,-29.6863 0,-1.6641 0.334,-3.3318 0.667,-4.9993 0.333,-1.6641 0.668,-2.9967 1.33,-4.6681 0.666,-1.6713 1.335,-3.004 2.336,-4.3367 1.003,-1.3325 2.004,-2.6652 3.335,-3.6633 1,-1.3324 2.34,-2.3339 3.672,-3.3386 1.664,-1.0015 2.999,-1.6677 4.663,-2.3304 1.672,-0.6736 3.003,-1.0084 4.671,-1.3397 1.671,-0.3351 3.337,-0.67 5.002,-0.67 v 0 c 1.666,0 3.667,0.3349 5.004,0.67 1.666,0.3313 3.332,0.6661 5.003,1.3397 1.666,0.6627 2.999,1.3289 4.331,2.3304 1.665,1.0047 2.672,2.0062 4.004,3.3386 2.333,1.9992 4.002,4.996 5.671,8 0.333,1.3326 0.999,2.6724 1.33,4.3367 0,0.6662 0,1.6674 0.335,2.3339 v 2.9968 c 0,13.0061 -22.679,49.0213 -23.012,49.6875 v 0 l -1,1.6677" />
      <path
         inkscape:connector-curvature="0"
         id="path270-7"
         style="display:inline;fill:#f9d47a;fill-opacity:1;fill-rule:evenodd;stroke:none;stroke-width:0.32855752"
         d="m 18164.766,5552.461 c 2.336,0 4.335,0.6633 5.67,1.9956 1.337,1.6678 2.002,3.332 2.002,5.3311 0,2.3445 -0.665,4.0086 -2.002,5.3449 -1.335,1.6608 -3.334,2.3304 -5.67,2.3304 -2,0 -3.999,-0.6696 -5.33,-2.3304 -1.34,-1.3363 -2.005,-3.0004 -2.005,-5.3449 0,-1.9991 0.665,-3.6633 2.005,-5.3311 1.331,-1.3323 3.33,-1.9956 5.33,-1.9956 v 0" />
      <path
         inkscape:connector-curvature="0"
         id="path272-9"
         style="display:inline;fill:#a13028;fill-opacity:1;fill-rule:evenodd;stroke:none;stroke-width:0.32855752"
         d="m 18168.77,5556.1244 c -0.999,-1.0011 -2.337,-1.6678 -4.004,-1.6678 -1.332,0 -2.666,0.6667 -3.665,1.6678 -1,0.9976 -1.665,2.3342 -1.665,3.6633 0,1.6782 0.665,3.0108 1.665,4.0086 0.999,0.9979 2.333,1.6645 3.665,1.6645 1.667,0 3.005,-0.6666 4.004,-1.6645 0.999,-0.9978 1.666,-2.3304 1.666,-4.0086 0,-1.3291 -0.667,-2.6657 -1.666,-3.6633 v 0" />
      <path
         inkscape:connector-curvature="0"
         id="path274-4"
         style="display:inline;fill:#f9d47a;fill-opacity:1;fill-rule:evenodd;stroke:none;stroke-width:0.32855752"
         d="m 17988.023,5383.045 c 3.999,0 7.338,1.3395 10.007,4.0121 2.332,2.3305 3.667,5.6621 3.667,9.3324 0,4.0052 -1.335,7.3367 -3.667,9.6673 -2.669,2.3342 -6.008,4.0052 -10.007,4.0052 -3.671,0 -6.999,-1.671 -9.673,-4.0052 -2.333,-2.3306 -3.998,-5.6621 -3.998,-9.6673 0,-3.6703 1.665,-7.0019 3.998,-9.3324 2.674,-2.6726 6.002,-4.0121 9.673,-4.0121 v 0" />
      <path
         inkscape:connector-curvature="0"
         id="path276-0"
         style="display:inline;fill:#a13028;fill-opacity:1;fill-rule:evenodd;stroke:none;stroke-width:0.32855752"
         d="m 17995.027,5389.719 c -1.667,-1.6641 -4.005,-2.9967 -7.004,-2.9967 -2.665,0 -5.002,1.3326 -6.999,2.9967 -1.674,1.6675 -2.674,3.998 -2.674,6.6705 0,2.6725 1,5.3379 2.674,7.0056 1.997,1.6639 4.334,2.6617 6.999,2.6617 2.999,0 5.337,-0.9978 7.004,-2.6617 1.663,-1.6677 3.003,-4.3331 3.003,-7.0056 0,-2.6725 -1.34,-5.003 -3.003,-6.6705 v 0" />
    </g>
  </g>
</svg>
