<?xml version="1.0" encoding="UTF-8" standalone="no"?>
<!-- Created with Inkscape (http://www.inkscape.org/) -->

<svg
   xmlns:dc="http://purl.org/dc/elements/1.1/"
   xmlns:cc="http://creativecommons.org/ns#"
   xmlns:rdf="http://www.w3.org/1999/02/22-rdf-syntax-ns#"
   xmlns:svg="http://www.w3.org/2000/svg"
   xmlns="http://www.w3.org/2000/svg"
   xmlns:sodipodi="http://sodipodi.sourceforge.net/DTD/sodipodi-0.dtd"
   xmlns:inkscape="http://www.inkscape.org/namespaces/inkscape"
   width="700"
   height="700"
   viewBox="0 0 185.20833 185.20834"
   version="1.1"
   id="svg9797"
   inkscape:version="0.92.1 r15371"
   sodipodi:docname="boton_historia.svg">
  <defs
     id="defs9791" />
  <sodipodi:namedview
     id="base"
     pagecolor="#ffffff"
     bordercolor="#666666"
     borderopacity="1.0"
     inkscape:pageopacity="0.0"
     inkscape:pageshadow="2"
     inkscape:zoom="0.35"
     inkscape:cx="-430"
     inkscape:cy="560"
     inkscape:document-units="mm"
     inkscape:current-layer="layer1"
     showgrid="false"
     units="px"
     inkscape:window-width="1920"
     inkscape:window-height="1051"
     inkscape:window-x="-9"
     inkscape:window-y="-9"
     inkscape:window-maximized="1" />
  <metadata
     id="metadata9794">
    <rdf:RDF>
      <cc:Work
         rdf:about="">
        <dc:format>image/svg+xml</dc:format>
        <dc:type
           rdf:resource="http://purl.org/dc/dcmitype/StillImage" />
        <dc:title></dc:title>
      </cc:Work>
    </rdf:RDF>
  </metadata>
  <g
     inkscape:label="Layer 1"
     inkscape:groupmode="layer"
     id="layer1"
     transform="translate(0,-111.79165)">
    <g
       transform="matrix(0.26458333,0,0,0.26458333,-4702.1722,-1652.7778)"
       style="display:inline"
       id="g6334">
      <path
         inkscape:connector-curvature="0"
         id="path90-4-4-9-3"
         style="display:inline;fill:#f9d47a;fill-opacity:1;fill-rule:nonzero;stroke:none;stroke-width:1.93620026"
         d="m 18444.874,7026.3815 c 0,179.112 -145.201,324.3134 -324.313,324.3134 -179.112,0 -324.315,-145.2014 -324.315,-324.3134 0,-179.1235 145.203,-324.313 324.315,-324.313 179.112,0 324.313,145.1895 324.313,324.313" />
      <path
         inkscape:connector-curvature="0"
         id="path92-7-0-9-7"
         style="display:inline;fill:#a13028;fill-opacity:1;fill-rule:nonzero;stroke:none;stroke-width:1.93620026"
         d="m 18120.561,6714.1698 c -172.155,0 -312.213,140.0588 -312.213,312.2117 0,172.155 140.058,312.2121 312.213,312.2121 172.156,0 312.213,-140.0571 312.213,-312.2121 0,-172.1529 -140.057,-312.2117 -312.213,-312.2117 z m 0,648.6264 c -185.5,0 -336.415,-150.9146 -336.415,-336.4147 0,-185.4877 150.915,-336.4143 336.415,-336.4143 185.501,0 336.415,150.9266 336.415,336.4143 0,185.5001 -150.914,336.4147 -336.415,336.4147" />
      <path
         inkscape:connector-curvature="0"
         id="path94-8-8-5-0"
         style="display:inline;fill:#a13028;fill-opacity:1;fill-rule:nonzero;stroke:none;stroke-width:1.93620026"
         d="m 18336.997,6855.657 24.689,-19.3619 c -1.181,-1.5006 -2.377,-3.0012 -3.606,-4.5013 l -24.323,19.7973 c 1.092,1.3553 2.179,2.6857 3.24,4.0659" />
      <path
         inkscape:connector-curvature="0"
         id="path96-4-0-9-2"
         style="display:inline;fill:#a13028;fill-opacity:1;fill-rule:nonzero;stroke:none;stroke-width:1.93620026"
         d="m 18362.545,6894.6234 27.595,-14.8855 c -0.92,-1.6939 -1.845,-3.3886 -2.799,-5.0576 l -27.298,15.4162 c 0.843,1.5006 1.688,3.0262 2.502,4.5269" />
      <path
         inkscape:connector-curvature="0"
         id="path98-5-3-7-1"
         style="display:inline;fill:#a13028;fill-opacity:1;fill-rule:nonzero;stroke:none;stroke-width:1.93620026"
         d="m 18369.532,6908.4905 28.409,-13.2633 c -0.816,-1.7427 -1.653,-3.4854 -2.505,-5.2275 l -28.154,13.8434 c 0.772,1.5494 1.518,3.098 2.25,4.6474" />
      <path
         inkscape:connector-curvature="0"
         id="path100-0-4-9-4"
         style="display:inline;fill:#a13028;fill-opacity:1;fill-rule:nonzero;stroke:none;stroke-width:1.93620026"
         d="m 18375.73,6922.8183 29.104,-11.6888 c -0.708,-1.7915 -1.453,-3.5822 -2.193,-5.3498 l -28.896,12.198 c 0.673,1.6223 1.346,3.2197 1.985,4.8406" />
      <path
         inkscape:connector-curvature="0"
         id="path102-3-9-7-9"
         style="display:inline;fill:#a13028;fill-opacity:1;fill-rule:nonzero;stroke:none;stroke-width:1.93620026"
         d="m 18354.78,6881.1667 26.699,-16.4341 c -1.017,-1.6459 -2.033,-3.292 -3.08,-4.9129 l -26.384,16.9649 c 0.941,1.4527 1.856,2.9047 2.765,4.3821" />
      <path
         inkscape:connector-curvature="0"
         id="path104-6-1-6-5"
         style="display:inline;fill:#a13028;fill-opacity:1;fill-rule:nonzero;stroke:none;stroke-width:1.93620026"
         d="m 18346.252,6868.1687 25.724,-17.933 c -1.095,-1.5743 -2.211,-3.1461 -3.341,-4.7202 l -25.39,18.4194 c 1.016,1.4033 2.014,2.8072 3.007,4.2338" />
      <path
         inkscape:connector-curvature="0"
         id="path106-1-7-7-1"
         style="display:inline;fill:#a13028;fill-opacity:1;fill-rule:nonzero;stroke:none;stroke-width:1.93620026"
         d="m 18381.098,6937.4363 29.74,-9.9712 c -0.604,-1.8394 -1.239,-3.6787 -1.892,-5.4932 l -29.54,10.5271 c 0.576,1.6459 1.146,3.292 1.692,4.9373" />
      <path
         inkscape:connector-curvature="0"
         id="path108-0-1-0-9"
         style="display:inline;fill:#a13028;fill-opacity:1;fill-rule:nonzero;stroke:none;stroke-width:1.93620026"
         d="m 18392.126,6982.8171 30.997,-4.817 c -0.303,-1.8881 -0.61,-3.7992 -0.937,-5.6871 l -30.906,5.3483 c 0.298,1.719 0.579,3.4129 0.846,5.1558" />
      <path
         inkscape:connector-curvature="0"
         id="path110-6-7-3-1"
         style="display:inline;fill:#a13028;fill-opacity:1;fill-rule:nonzero;stroke:none;stroke-width:1.93620026"
         d="m 18395.123,7013.7712 31.348,-1.2579 c -0.08,-1.9117 -0.175,-3.8478 -0.291,-5.7839 l -31.307,1.8624 c 0.102,1.7198 0.175,3.4623 0.25,5.1794" />
      <path
         inkscape:connector-curvature="0"
         id="path112-3-4-3-2"
         style="display:inline;fill:#a13028;fill-opacity:1;fill-rule:nonzero;stroke:none;stroke-width:1.93620026"
         d="m 18394.061,6998.2583 31.219,-3.0262 c -0.173,-1.9112 -0.384,-3.8473 -0.612,-5.7601 l -31.151,3.6068 c 0.194,1.7178 0.375,3.4367 0.544,5.1795" />
      <path
         inkscape:connector-curvature="0"
         id="path114-2-7-3-5"
         style="display:inline;fill:#a13028;fill-opacity:1;fill-rule:nonzero;stroke:none;stroke-width:1.93620026"
         d="m 18385.636,6952.3449 30.258,-8.2773 c -0.518,-1.8625 -1.033,-3.7018 -1.583,-5.5661 l -30.093,8.8349 c 0.497,1.669 0.962,3.3399 1.418,5.0085" />
      <path
         inkscape:connector-curvature="0"
         id="path116-0-3-2-9"
         style="display:inline;fill:#a13028;fill-opacity:1;fill-rule:nonzero;stroke:none;stroke-width:1.93620026"
         d="m 18389.309,6967.4961 30.685,-6.5583 c -0.407,-1.888 -0.832,-3.7523 -1.258,-5.6402 l -30.556,7.1159 c 0.391,1.6716 0.776,3.3648 1.129,5.0826" />
      <path
         inkscape:connector-curvature="0"
         id="path118-6-7-2-6"
         style="display:inline;fill:#a13028;fill-opacity:1;fill-rule:nonzero;stroke:none;stroke-width:1.93620026"
         d="m 18350.328,7175.9064 26.206,17.2301 c 1.052,-1.6124 2.103,-3.2333 3.129,-4.8674 l -26.542,-16.7213 c -0.914,1.4621 -1.85,2.9142 -2.793,4.3586" />
      <path
         inkscape:connector-curvature="0"
         id="path120-1-9-8-9"
         style="display:inline;fill:#a13028;fill-opacity:1;fill-rule:nonzero;stroke:none;stroke-width:1.93620026"
         d="m 18331.809,7200.8561 24.067,20.1136 c 1.248,-1.4889 2.472,-2.9814 3.668,-4.4902 l -24.469,-19.6175 c -1.073,1.3416 -2.154,2.6719 -3.266,3.9941" />
      <path
         inkscape:connector-curvature="0"
         id="path122-5-3-4-1"
         style="display:inline;fill:#a13028;fill-opacity:1;fill-rule:nonzero;stroke:none;stroke-width:1.93620026"
         d="m 18341.411,7188.6626 25.2,18.6707 c 1.145,-1.5455 2.275,-3.0885 3.384,-4.6571 l -25.525,-18.2218 c -1.003,1.4121 -2.024,2.8142 -3.059,4.2082" />
      <path
         inkscape:connector-curvature="0"
         id="path124-5-2-6-8"
         style="display:inline;fill:#a13028;fill-opacity:1;fill-rule:nonzero;stroke:none;stroke-width:1.93620026"
         d="m 18390.644,7075.7277 30.83,5.7386 c 0.35,-1.8878 0.688,-3.7678 1.006,-5.6688 l -30.933,-5.1856 c -0.284,1.7058 -0.587,3.4099 -0.903,5.1158" />
      <path
         inkscape:connector-curvature="0"
         id="path126-4-4-5-1"
         style="display:inline;fill:#a13028;fill-opacity:1;fill-rule:nonzero;stroke:none;stroke-width:1.93620026"
         d="m 18394.622,7044.8858 31.289,2.2651 c 0.141,-1.9229 0.252,-3.8433 0.358,-5.7718 l -31.311,-1.6628 c -0.103,1.7271 -0.208,3.4555 -0.336,5.1695" />
      <path
         inkscape:connector-curvature="0"
         id="path128-7-3-5-5"
         style="display:inline;fill:#a13028;fill-opacity:1;fill-rule:nonzero;stroke:none;stroke-width:1.93620026"
         d="m 18395.346,7024.1592 c 0,1.727 0,3.446 -0.04,5.1729 l 31.366,0.5153 c 0,-1.9186 0.04,-3.8491 0.04,-5.7811 l -31.375,0.096" />
      <path
         inkscape:connector-curvature="0"
         id="path130-6-0-2-3"
         style="display:inline;fill:#a13028;fill-opacity:1;fill-rule:nonzero;stroke:none;stroke-width:1.93620026"
         d="m 18387.368,7090.8857 30.446,7.5264 c 0.46,-1.8724 0.902,-3.7524 1.326,-5.6346 l -30.59,-6.9065 c -0.379,1.683 -0.782,3.3476 -1.182,5.0147" />
      <path
         inkscape:connector-curvature="0"
         id="path132-5-3-3-7"
         style="display:inline;fill:#a13028;fill-opacity:1;fill-rule:nonzero;stroke:none;stroke-width:1.93620026"
         d="m 18393.073,7060.3444 31.1,4.0529 c 0.246,-1.9117 0.478,-3.8346 0.689,-5.755 l -31.173,-3.4266 c -0.193,1.7115 -0.397,3.4228 -0.616,5.1287" />
      <path
         inkscape:connector-curvature="0"
         id="path134-6-1-2-9"
         style="display:inline;fill:#a13028;fill-opacity:1;fill-rule:nonzero;stroke:none;stroke-width:1.93620026"
         d="m 18365.897,7148.9951 27.976,14.1538 c 0.877,-1.7195 1.725,-3.4559 2.559,-5.1853 l -28.27,-13.5808 c -0.743,1.5418 -1.491,3.0768 -2.265,4.6123" />
      <path
         inkscape:connector-curvature="0"
         id="path136-9-7-7-8"
         style="display:inline;fill:#a13028;fill-opacity:1;fill-rule:nonzero;stroke:none;stroke-width:1.93620026"
         d="m 18358.49,7162.6725 27.143,15.7175 c 0.964,-1.6802 1.919,-3.3568 2.849,-5.0433 l -27.449,-15.1662 c -0.826,1.5019 -1.679,2.9969 -2.543,4.492" />
      <path
         inkscape:connector-curvature="0"
         id="path138-3-7-7-6"
         style="display:inline;fill:#a13028;fill-opacity:1;fill-rule:nonzero;stroke:none;stroke-width:1.93620026"
         d="m 18378.259,7120.5776 29.425,10.8812 c 0.657,-1.7963 1.314,-3.6013 1.944,-5.4076 l -29.623,-10.3492 c -0.571,1.6328 -1.146,3.259 -1.746,4.8756" />
      <path
         inkscape:connector-curvature="0"
         id="path140-7-1-9-0"
         style="display:inline;fill:#a13028;fill-opacity:1;fill-rule:nonzero;stroke:none;stroke-width:1.93620026"
         d="m 18372.48,7134.9616 28.743,12.5503 c 0.774,-1.7731 1.528,-3.5408 2.258,-5.3321 l -28.999,-11.9565 c -0.644,1.5922 -1.309,3.1697 -2.002,4.7383" />
      <path
         inkscape:connector-curvature="0"
         id="path142-4-9-6-1"
         style="display:inline;fill:#a13028;fill-opacity:1;fill-rule:nonzero;stroke:none;stroke-width:1.93620026"
         d="m 18383.231,7105.8716 29.98,9.2073 c 0.561,-1.8412 1.109,-3.6867 1.639,-5.536 l -30.146,-8.629 c -0.482,1.657 -0.964,3.3124 -1.473,4.9577" />
      <path
         inkscape:connector-curvature="0"
         id="path144-5-7-4-7"
         style="display:inline;fill:#a13028;fill-opacity:1;fill-rule:nonzero;stroke:none;stroke-width:1.93620026"
         d="m 17904.125,6855.657 -24.688,-19.3619 c 1.18,-1.5006 2.374,-3.0012 3.604,-4.5013 l 24.323,19.7973 c -1.091,1.3553 -2.179,2.6857 -3.239,4.0659" />
      <path
         inkscape:connector-curvature="0"
         id="path146-2-8-5-5"
         style="display:inline;fill:#a13028;fill-opacity:1;fill-rule:nonzero;stroke:none;stroke-width:1.93620026"
         d="m 17878.577,6894.6234 -27.598,-14.8855 c 0.923,-1.6939 1.847,-3.3886 2.8,-5.0576 l 27.298,15.4162 c -0.841,1.5006 -1.686,3.0262 -2.5,4.5269" />
      <path
         inkscape:connector-curvature="0"
         id="path148-5-4-2-2"
         style="display:inline;fill:#a13028;fill-opacity:1;fill-rule:nonzero;stroke:none;stroke-width:1.93620026"
         d="m 17871.591,6908.4905 -28.409,-13.2633 c 0.815,-1.7427 1.652,-3.4854 2.503,-5.2275 l 28.155,13.8434 c -0.773,1.5494 -1.518,3.098 -2.249,4.6474" />
      <path
         inkscape:connector-curvature="0"
         id="path150-4-7-0-6"
         style="display:inline;fill:#a13028;fill-opacity:1;fill-rule:nonzero;stroke:none;stroke-width:1.93620026"
         d="m 17865.39,6922.8183 -29.102,-11.6888 c 0.708,-1.7915 1.453,-3.5822 2.192,-5.3498 l 28.897,12.198 c -0.675,1.6223 -1.348,3.2197 -1.987,4.8406" />
      <path
         inkscape:connector-curvature="0"
         id="path152-7-4-5-9"
         style="display:inline;fill:#a13028;fill-opacity:1;fill-rule:nonzero;stroke:none;stroke-width:1.93620026"
         d="m 17886.343,6881.1667 -26.698,-16.4341 c 1.012,-1.6459 2.03,-3.292 3.079,-4.9129 l 26.383,16.9649 c -0.941,1.4527 -1.856,2.9047 -2.764,4.3821" />
      <path
         inkscape:connector-curvature="0"
         id="path154-4-7-7-8"
         style="display:inline;fill:#a13028;fill-opacity:1;fill-rule:nonzero;stroke:none;stroke-width:1.93620026"
         d="m 17894.87,6868.1687 -25.724,-17.933 c 1.095,-1.5743 2.21,-3.1461 3.341,-4.7202 l 25.39,18.4194 c -1.016,1.4033 -2.014,2.8072 -3.007,4.2338" />
      <path
         inkscape:connector-curvature="0"
         id="path156-4-0-9-0"
         style="display:inline;fill:#a13028;fill-opacity:1;fill-rule:nonzero;stroke:none;stroke-width:1.93620026"
         d="m 17860.024,6937.4363 -29.74,-9.9712 c 0.603,-1.8394 1.239,-3.6787 1.892,-5.4932 l 29.538,10.5271 c -0.574,1.6459 -1.144,3.292 -1.69,4.9373" />
      <path
         inkscape:connector-curvature="0"
         id="path158-3-9-0-8"
         style="display:inline;fill:#a13028;fill-opacity:1;fill-rule:nonzero;stroke:none;stroke-width:1.93620026"
         d="m 17848.995,6982.8171 -30.996,-4.817 c 0.301,-1.8881 0.608,-3.7992 0.937,-5.6871 l 30.906,5.3483 c -0.298,1.719 -0.578,3.4129 -0.847,5.1558" />
      <path
         inkscape:connector-curvature="0"
         id="path160-0-1-2-5"
         style="display:inline;fill:#a13028;fill-opacity:1;fill-rule:nonzero;stroke:none;stroke-width:1.93620026"
         d="m 17845.999,7013.7712 -31.348,-1.2579 c 0.08,-1.9117 0.175,-3.8478 0.291,-5.7839 l 31.306,1.8624 c -0.103,1.7198 -0.175,3.4623 -0.249,5.1794" />
      <path
         inkscape:connector-curvature="0"
         id="path162-7-1-0-8"
         style="display:inline;fill:#a13028;fill-opacity:1;fill-rule:nonzero;stroke:none;stroke-width:1.93620026"
         d="m 17847.061,6998.2583 -31.222,-3.0262 c 0.174,-1.9112 0.388,-3.8473 0.615,-5.7601 l 31.151,3.6068 c -0.194,1.7178 -0.375,3.4367 -0.544,5.1795" />
      <path
         inkscape:connector-curvature="0"
         id="path164-8-3-4-6"
         style="display:inline;fill:#a13028;fill-opacity:1;fill-rule:nonzero;stroke:none;stroke-width:1.93620026"
         d="m 17855.485,6952.3449 -30.257,-8.2773 c 0.517,-1.8625 1.033,-3.7018 1.583,-5.5661 l 30.092,8.8349 c -0.498,1.669 -0.961,3.3399 -1.418,5.0085" />
      <path
         inkscape:connector-curvature="0"
         id="path166-6-3-4-7"
         style="display:inline;fill:#a13028;fill-opacity:1;fill-rule:nonzero;stroke:none;stroke-width:1.93620026"
         d="m 17851.811,6967.4961 -30.683,-6.5583 c 0.405,-1.888 0.832,-3.7523 1.257,-5.6402 l 30.555,7.1159 c -0.39,1.6716 -0.776,3.3648 -1.129,5.0826" />
      <path
         inkscape:connector-curvature="0"
         id="path168-8-9-4-0"
         style="display:inline;fill:#a13028;fill-opacity:1;fill-rule:nonzero;stroke:none;stroke-width:1.93620026"
         d="m 17890.793,7175.9064 -26.205,17.2301 c -1.052,-1.6124 -2.103,-3.2333 -3.129,-4.8674 l 26.543,-16.7213 c 0.912,1.4621 1.849,2.9142 2.791,4.3586" />
      <path
         inkscape:connector-curvature="0"
         id="path170-8-9-9-5"
         style="display:inline;fill:#a13028;fill-opacity:1;fill-rule:nonzero;stroke:none;stroke-width:1.93620026"
         d="m 17909.312,7200.8561 -24.068,20.1136 c -1.246,-1.4889 -2.472,-2.9814 -3.667,-4.4902 l 24.467,-19.6175 c 1.076,1.3416 2.157,2.6719 3.268,3.9941" />
      <path
         inkscape:connector-curvature="0"
         id="path172-4-2-7-3"
         style="display:inline;fill:#a13028;fill-opacity:1;fill-rule:nonzero;stroke:none;stroke-width:1.93620026"
         d="m 17899.711,7188.6626 -25.2,18.6707 c -1.145,-1.5455 -2.276,-3.0885 -3.386,-4.6571 l 25.525,-18.2218 c 1.004,1.4121 2.026,2.8142 3.061,4.2082" />
      <path
         inkscape:connector-curvature="0"
         id="path174-3-9-7-2"
         style="display:inline;fill:#a13028;fill-opacity:1;fill-rule:nonzero;stroke:none;stroke-width:1.93620026"
         d="m 17850.477,7075.7277 -30.829,5.7386 c -0.351,-1.8878 -0.688,-3.7678 -1.006,-5.6688 l 30.933,-5.1856 c 0.283,1.7058 0.585,3.4099 0.902,5.1158" />
      <path
         inkscape:connector-curvature="0"
         id="path176-1-2-1-8"
         style="display:inline;fill:#a13028;fill-opacity:1;fill-rule:nonzero;stroke:none;stroke-width:1.93620026"
         d="m 17846.499,7044.8858 -31.29,2.2651 c -0.139,-1.9229 -0.25,-3.8433 -0.357,-5.7718 l 31.312,-1.6628 c 0.103,1.7271 0.208,3.4555 0.335,5.1695" />
      <path
         inkscape:connector-curvature="0"
         id="path178-4-0-1-5"
         style="display:inline;fill:#a13028;fill-opacity:1;fill-rule:nonzero;stroke:none;stroke-width:1.93620026"
         d="m 17845.776,7024.1592 c 0,1.727 0,3.446 0.04,5.1729 l -31.367,0.5153 c 0,-1.9186 -0.04,-3.8491 -0.04,-5.7811 l 31.372,0.096" />
      <path
         inkscape:connector-curvature="0"
         id="path180-9-3-0-9"
         style="display:inline;fill:#a13028;fill-opacity:1;fill-rule:nonzero;stroke:none;stroke-width:1.93620026"
         d="m 17853.755,7090.8857 -30.447,7.5264 c -0.46,-1.8724 -0.902,-3.7524 -1.325,-5.6346 l 30.588,-6.9065 c 0.379,1.683 0.783,3.3476 1.184,5.0147" />
      <path
         inkscape:connector-curvature="0"
         id="path182-2-9-0-5"
         style="display:inline;fill:#a13028;fill-opacity:1;fill-rule:nonzero;stroke:none;stroke-width:1.93620026"
         d="m 17848.048,7060.3444 -31.099,4.0529 c -0.246,-1.9117 -0.48,-3.8346 -0.688,-5.755 l 31.171,-3.4266 c 0.194,1.7115 0.397,3.4228 0.616,5.1287" />
      <path
         inkscape:connector-curvature="0"
         id="path184-0-7-6-6"
         style="display:inline;fill:#a13028;fill-opacity:1;fill-rule:nonzero;stroke:none;stroke-width:1.93620026"
         d="m 17875.224,7148.9951 -27.975,14.1538 c -0.877,-1.7195 -1.726,-3.4559 -2.56,-5.1853 l 28.271,-13.5808 c 0.743,1.5418 1.49,3.0768 2.264,4.6123" />
      <path
         inkscape:connector-curvature="0"
         id="path186-6-9-7-9"
         style="display:inline;fill:#a13028;fill-opacity:1;fill-rule:nonzero;stroke:none;stroke-width:1.93620026"
         d="m 17882.63,7162.6725 -27.141,15.7175 c -0.965,-1.6802 -1.919,-3.3568 -2.849,-5.0433 l 27.449,-15.1662 c 0.826,1.5019 1.678,2.9969 2.541,4.492" />
      <path
         inkscape:connector-curvature="0"
         id="path188-8-4-2-7"
         style="display:inline;fill:#a13028;fill-opacity:1;fill-rule:nonzero;stroke:none;stroke-width:1.93620026"
         d="m 17862.863,7120.5776 -29.425,10.8812 c -0.656,-1.7963 -1.314,-3.6013 -1.944,-5.4076 l 29.621,-10.3492 c 0.571,1.6328 1.146,3.259 1.748,4.8756" />
      <path
         inkscape:connector-curvature="0"
         id="path190-9-7-8-5"
         style="display:inline;fill:#a13028;fill-opacity:1;fill-rule:nonzero;stroke:none;stroke-width:1.93620026"
         d="m 17868.641,7134.9616 -28.742,12.5503 c -0.774,-1.7731 -1.528,-3.5408 -2.258,-5.3321 l 28.999,-11.9565 c 0.645,1.5922 1.309,3.1697 2.001,4.7383" />
      <path
         inkscape:connector-curvature="0"
         id="path192-2-5-7-0"
         style="display:inline;fill:#a13028;fill-opacity:1;fill-rule:nonzero;stroke:none;stroke-width:1.93620026"
         d="m 17857.889,7105.8716 -29.978,9.2073 c -0.561,-1.8412 -1.111,-3.6867 -1.641,-5.536 l 30.148,-8.629 c 0.48,1.657 0.963,3.3124 1.471,4.9577" />
      <path
         inkscape:connector-curvature="0"
         id="path194-6-8-0-6"
         style="display:inline;fill:#a13028;fill-opacity:1;fill-rule:nonzero;stroke:none;stroke-width:1.93620026"
         d="m 18267.266,7258.2122 16.786,26.4915 c 1.627,-1.0203 3.237,-2.0658 4.852,-3.133 l -17.265,-26.1739 c -1.46,0.9565 -2.911,1.8865 -4.373,2.8154" />
      <path
         inkscape:connector-curvature="0"
         id="path196-6-0-8-4"
         style="display:inline;fill:#a13028;fill-opacity:1;fill-rule:nonzero;stroke:none;stroke-width:1.93620026"
         d="m 18253.908,7266.1427 15.23,27.417 c 1.684,-0.9369 3.359,-1.8916 5.039,-2.8596 l -15.777,-27.1147 c -1.483,0.8639 -2.98,1.7208 -4.492,2.5573" />
      <path
         inkscape:connector-curvature="0"
         id="path198-4-0-9-0"
         style="display:inline;fill:#a13028;fill-opacity:1;fill-rule:nonzero;stroke:none;stroke-width:1.93620026"
         d="m 18240.094,7273.3072 13.661,28.2299 c 1.737,-0.8333 3.451,-1.6884 5.17,-2.5505 l -14.162,-27.9877 c -1.544,0.7864 -3.108,1.553 -4.669,2.3083" />
      <path
         inkscape:connector-curvature="0"
         id="path200-9-9-7-5"
         style="display:inline;fill:#a13028;fill-opacity:1;fill-rule:nonzero;stroke:none;stroke-width:1.93620026"
         d="m 18280.17,7249.5207 18.256,25.51 c 1.554,-1.1135 3.112,-2.2487 4.658,-3.4006 l -18.721,-25.1569 c -1.389,1.0249 -2.789,2.0489 -4.193,3.0475" />
      <path
         inkscape:connector-curvature="0"
         id="path202-5-9-1-2"
         style="display:inline;fill:#a13028;fill-opacity:1;fill-rule:nonzero;stroke:none;stroke-width:1.93620026"
         d="m 18225.88,7279.6852 12.003,28.9671 c 1.787,-0.734 3.565,-1.493 5.348,-2.2672 l -12.579,-28.7431 c -1.585,0.6992 -3.174,1.3827 -4.772,2.0432" />
      <path
         inkscape:connector-curvature="0"
         id="path204-0-1-7-3"
         style="display:inline;fill:#a13028;fill-opacity:1;fill-rule:nonzero;stroke:none;stroke-width:1.93620026"
         d="m 18211.298,7285.2358 10.364,29.6081 c 1.814,-0.6368 3.627,-1.2816 5.438,-1.9552 l -10.888,-29.4106 c -1.636,0.6056 -3.276,1.1926 -4.914,1.7577" />
      <path
         inkscape:connector-curvature="0"
         id="path206-4-9-4-4"
         style="display:inline;fill:#a13028;fill-opacity:1;fill-rule:nonzero;stroke:none;stroke-width:1.93620026"
         d="m 18166.082,7296.8124 5.179,30.9405 c 1.897,-0.3232 3.803,-0.6562 5.685,-1.0204 l -5.746,-30.8144 c -1.709,0.3105 -3.417,0.6118 -5.118,0.8943" />
      <path
         inkscape:connector-curvature="0"
         id="path208-8-6-3-3"
         style="display:inline;fill:#a13028;fill-opacity:1;fill-rule:nonzero;stroke:none;stroke-width:1.93620026"
         d="m 18181.369,7293.8173 6.918,30.5881 c 1.88,-0.4285 3.749,-0.8655 5.617,-1.3266 l -7.471,-30.4602 c -1.685,0.4147 -3.375,0.807 -5.064,1.1987" />
      <path
         inkscape:connector-curvature="0"
         id="path210-7-9-6-2"
         style="display:inline;fill:#a13028;fill-opacity:1;fill-rule:nonzero;stroke:none;stroke-width:1.93620026"
         d="m 18196.444,7289.9541 8.664,30.1466 c 1.844,-0.5359 3.691,-1.0722 5.535,-1.6393 l -9.195,-29.9887 c -1.666,0.5059 -3.327,1.0073 -5.004,1.4814" />
      <path
         inkscape:connector-curvature="0"
         id="path212-1-7-3-2"
         style="display:inline;fill:#a13028;fill-opacity:1;fill-rule:nonzero;stroke:none;stroke-width:1.93620026"
         d="m 18151.621,7307.4968 2.444,22.33 c 1.909,-0.2072 3.822,-0.4379 5.735,-0.6817 l -2.998,-23.3699 c -1.639,0.8651 -3.395,1.4034 -5.181,1.7216" />
      <path
         inkscape:connector-curvature="0"
         id="path214-7-4-0-8"
         style="display:inline;fill:#a13028;fill-opacity:1;fill-rule:nonzero;stroke:none;stroke-width:1.93620026"
         d="m 18140.481,7305.4965 c -2.041,-1.1116 -3.794,-2.5692 -5.263,-4.2426 l 1.552,29.6551 c 1.932,-0.096 3.861,-0.2071 5.784,-0.3506 l -1.797,-24.9535 c -0.103,-0.038 -0.192,-0.057 -0.276,-0.1172" />
      <path
         inkscape:connector-curvature="0"
         id="path216-2-5-2-0"
         style="display:inline;fill:#a13028;fill-opacity:1;fill-rule:nonzero;stroke:none;stroke-width:1.93620026"
         d="m 17973.856,7258.2122 -16.787,26.4915 c -1.628,-1.0203 -3.238,-2.0658 -4.851,-3.133 l 17.264,-26.1739 c 1.461,0.9565 2.913,1.8865 4.374,2.8154" />
      <path
         inkscape:connector-curvature="0"
         id="path218-7-7-2-8"
         style="display:inline;fill:#a13028;fill-opacity:1;fill-rule:nonzero;stroke:none;stroke-width:1.93620026"
         d="m 17987.215,7266.1427 -15.231,27.417 c -1.684,-0.9369 -3.357,-1.8916 -5.04,-2.8596 l 15.776,-27.1147 c 1.485,0.8639 2.982,1.7208 4.495,2.5573" />
      <path
         inkscape:connector-curvature="0"
         id="path220-2-4-1-9"
         style="display:inline;fill:#a13028;fill-opacity:1;fill-rule:nonzero;stroke:none;stroke-width:1.93620026"
         d="m 18001.027,7273.3072 -13.661,28.2299 c -1.737,-0.8333 -3.45,-1.6884 -5.171,-2.5505 l 14.164,-27.9877 c 1.543,0.7864 3.108,1.553 4.668,2.3083" />
      <path
         inkscape:connector-curvature="0"
         id="path222-2-9-1-4"
         style="display:inline;fill:#a13028;fill-opacity:1;fill-rule:nonzero;stroke:none;stroke-width:1.93620026"
         d="m 17960.953,7249.5207 -18.256,25.51 c -1.555,-1.1135 -3.113,-2.2487 -4.659,-3.4006 l 18.719,-25.1569 c 1.391,1.0249 2.795,2.0489 4.196,3.0475" />
      <path
         inkscape:connector-curvature="0"
         id="path224-6-1-7-0"
         style="display:inline;fill:#a13028;fill-opacity:1;fill-rule:nonzero;stroke:none;stroke-width:1.93620026"
         d="m 18015.242,7279.6852 -12.003,28.9671 c -1.789,-0.734 -3.568,-1.493 -5.348,-2.2672 l 12.579,-28.7431 c 1.588,0.6992 3.174,1.3827 4.772,2.0432" />
      <path
         inkscape:connector-curvature="0"
         id="path226-1-7-7-6"
         style="display:inline;fill:#a13028;fill-opacity:1;fill-rule:nonzero;stroke:none;stroke-width:1.93620026"
         d="m 18029.822,7285.2358 -10.362,29.6081 c -1.814,-0.6368 -3.627,-1.2816 -5.439,-1.9552 l 10.889,-29.4106 c 1.637,0.6056 3.276,1.1926 4.912,1.7577" />
      <path
         inkscape:connector-curvature="0"
         id="path228-0-8-6-2"
         style="display:inline;fill:#a13028;fill-opacity:1;fill-rule:nonzero;stroke:none;stroke-width:1.93620026"
         d="m 18075.04,7296.8124 -5.179,30.9405 c -1.899,-0.3232 -3.804,-0.6562 -5.686,-1.0204 l 5.748,-30.8144 c 1.709,0.3105 3.416,0.6118 5.117,0.8943" />
      <path
         inkscape:connector-curvature="0"
         id="path230-6-2-8-2"
         style="display:inline;fill:#a13028;fill-opacity:1;fill-rule:nonzero;stroke:none;stroke-width:1.93620026"
         d="m 18059.755,7293.8173 -6.92,30.5881 c -1.882,-0.4285 -3.748,-0.8655 -5.617,-1.3266 l 7.471,-30.4602 c 1.685,0.4147 3.375,0.807 5.066,1.1987" />
      <path
         inkscape:connector-curvature="0"
         id="path232-1-1-5-4"
         style="display:inline;fill:#a13028;fill-opacity:1;fill-rule:nonzero;stroke:none;stroke-width:1.93620026"
         d="m 18044.678,7289.9541 -8.665,30.1466 c -1.843,-0.5359 -3.691,-1.0722 -5.534,-1.6393 l 9.196,-29.9887 c 1.665,0.5059 3.326,1.0073 5.003,1.4814" />
      <path
         inkscape:connector-curvature="0"
         id="path234-5-8-8-8"
         style="display:inline;fill:#a13028;fill-opacity:1;fill-rule:nonzero;stroke:none;stroke-width:1.93620026"
         d="m 18089.5,7307.4968 -2.446,22.33 c -1.907,-0.2072 -3.819,-0.4379 -5.732,-0.6817 l 2.998,-23.3699 c 1.641,0.8651 3.394,1.4034 5.18,1.7216" />
      <path
         inkscape:connector-curvature="0"
         id="path236-9-1-4-6"
         style="display:inline;fill:#a13028;fill-opacity:1;fill-rule:nonzero;stroke:none;stroke-width:1.93620026"
         d="m 18100.638,7305.4965 c 2.044,-1.1116 3.797,-2.5692 5.266,-4.2426 l -1.552,29.6551 c -1.934,-0.096 -3.862,-0.2071 -5.783,-0.3506 l 1.795,-24.9535 c 0.103,-0.038 0.193,-0.057 0.274,-0.1172" />
      <path
         inkscape:connector-curvature="0"
         id="path238-4-8-3-4"
         style="display:inline;fill:#a13028;fill-opacity:1;fill-rule:nonzero;stroke:none;stroke-width:1.93620026"
         d="m 18117.786,7332.2118 h 5.55 v -32.1311 h -5.55 z" />
      <path
         inkscape:connector-curvature="0"
         id="path240-9-6-4-2"
         style="display:inline;fill:#a13028;fill-opacity:1;fill-rule:nonzero;stroke:none;stroke-width:1.93620026"
         d="m 17973.856,6794.545 -16.787,-26.4777 c -1.628,1.0166 -3.238,2.0582 -4.851,3.1234 l 17.264,26.1866 c 1.461,-0.9679 2.913,-1.8873 4.374,-2.8323" />
      <path
         inkscape:connector-curvature="0"
         id="path242-0-8-4-5"
         style="display:inline;fill:#a13028;fill-opacity:1;fill-rule:nonzero;stroke:none;stroke-width:1.93620026"
         d="m 17987.215,6786.6314 -15.231,-27.4222 c -1.684,0.945 -3.357,1.8881 -5.04,2.8561 l 15.776,27.1065 c 1.485,-0.8459 2.982,-1.7172 4.495,-2.5404" />
      <path
         inkscape:connector-curvature="0"
         id="path244-9-4-6-1"
         style="display:inline;fill:#a13028;fill-opacity:1;fill-rule:nonzero;stroke:none;stroke-width:1.93620026"
         d="m 18001.027,6779.4675 -13.661,-28.2449 c -1.737,0.8476 -3.45,1.694 -5.171,2.5654 l 14.164,27.9778 c 1.543,-0.774 3.108,-1.5486 4.668,-2.2983" />
      <path
         inkscape:connector-curvature="0"
         id="path246-1-2-1-0"
         style="display:inline;fill:#a13028;fill-opacity:1;fill-rule:nonzero;stroke:none;stroke-width:1.93620026"
         d="m 17960.953,6803.2576 -18.256,-25.5322 c -1.555,1.1132 -3.113,2.2497 -4.659,3.4111 l 18.719,25.1473 c 1.391,-1.0158 2.791,-2.0325 4.196,-3.0262" />
      <path
         inkscape:connector-curvature="0"
         id="path248-7-0-6-1"
         style="display:inline;fill:#a13028;fill-opacity:1;fill-rule:nonzero;stroke:none;stroke-width:1.93620026"
         d="m 18015.242,6773.0782 -12.003,-28.9715 c -1.789,0.7515 -3.568,1.5006 -5.348,2.2753 l 12.579,28.7524 c 1.588,-0.7009 3.174,-1.3783 4.772,-2.0562" />
      <path
         inkscape:connector-curvature="0"
         id="path250-7-1-8-2"
         style="display:inline;fill:#a13028;fill-opacity:1;fill-rule:nonzero;stroke:none;stroke-width:1.93620026"
         d="m 18029.822,6767.5352 -10.362,-29.5989 c -1.814,0.6293 -3.627,1.2587 -5.439,1.936 l 10.889,29.4305 c 1.637,-0.6294 3.276,-1.21 4.912,-1.7676" />
      <path
         inkscape:connector-curvature="0"
         id="path252-1-8-3-2"
         style="display:inline;fill:#a13028;fill-opacity:1;fill-rule:nonzero;stroke:none;stroke-width:1.93620026"
         d="m 18075.04,6755.9429 -5.179,-30.9305 c -1.899,0.3385 -3.804,0.6524 -5.686,1.0159 l 5.748,30.809 c 1.709,-0.29 3.416,-0.6037 5.117,-0.8944" />
      <path
         inkscape:connector-curvature="0"
         id="path254-1-3-7-0"
         style="display:inline;fill:#a13028;fill-opacity:1;fill-rule:nonzero;stroke:none;stroke-width:1.93620026"
         d="m 18059.753,6758.9442 -6.918,-30.5924 c -1.882,0.4359 -3.748,0.8718 -5.617,1.3304 l 7.471,30.472 c 1.685,-0.4122 3.375,-0.8227 5.064,-1.21" />
      <path
         inkscape:connector-curvature="0"
         id="path256-5-2-2-9"
         style="display:inline;fill:#a13028;fill-opacity:1;fill-rule:nonzero;stroke:none;stroke-width:1.93620026"
         d="m 18044.678,6762.8162 -8.665,-30.1566 c -1.843,0.5328 -3.691,1.0885 -5.534,1.6461 l 9.196,29.9863 c 1.665,-0.5072 3.326,-1.0167 5.003,-1.4758" />
      <path
         inkscape:connector-curvature="0"
         id="path258-9-8-5-4"
         style="display:inline;fill:#a13028;fill-opacity:1;fill-rule:nonzero;stroke:none;stroke-width:1.93620026"
         d="m 18089.5,6745.2686 -2.446,-22.3377 c -1.907,0.2166 -3.819,0.4355 -5.732,0.7006 l 2.998,23.3567 c 1.639,-0.8719 3.394,-1.4041 5.18,-1.7196" />
      <path
         inkscape:connector-curvature="0"
         id="path260-7-1-3-9"
         style="display:inline;fill:#a13028;fill-opacity:1;fill-rule:nonzero;stroke:none;stroke-width:1.93620026"
         d="m 18100.638,6747.2782 c 2.044,1.1134 3.797,2.566 5.266,4.2345 l -1.552,-29.6469 c -1.934,0.097 -3.862,0.1934 -5.783,0.3386 l 1.795,24.9523 c 0.103,0.037 0.193,0.077 0.274,0.1158" />
      <path
         inkscape:connector-curvature="0"
         id="path262-7-4-4-5"
         style="display:inline;fill:#a13028;fill-opacity:1;fill-rule:nonzero;stroke:none;stroke-width:1.93620026"
         d="m 18267.266,6794.545 16.786,-26.4777 c 1.627,1.0166 3.237,2.0582 4.852,3.1234 l -17.265,26.1866 c -1.46,-0.9679 -2.911,-1.8873 -4.373,-2.8323" />
      <path
         inkscape:connector-curvature="0"
         id="path264-6-4-8-8"
         style="display:inline;fill:#a13028;fill-opacity:1;fill-rule:nonzero;stroke:none;stroke-width:1.93620026"
         d="m 18253.908,6786.6314 15.23,-27.4222 c 1.684,0.945 3.356,1.8881 5.039,2.8561 l -15.777,27.1065 c -1.483,-0.8459 -2.98,-1.7172 -4.492,-2.5404" />
      <path
         inkscape:connector-curvature="0"
         id="path266-7-0-4-8"
         style="display:inline;fill:#a13028;fill-opacity:1;fill-rule:nonzero;stroke:none;stroke-width:1.93620026"
         d="m 18240.094,6779.4675 13.661,-28.2449 c 1.737,0.8476 3.451,1.694 5.17,2.5654 l -14.162,27.9778 c -1.544,-0.774 -3.108,-1.5486 -4.669,-2.2983" />
      <path
         inkscape:connector-curvature="0"
         id="path268-3-2-5-2"
         style="display:inline;fill:#a13028;fill-opacity:1;fill-rule:nonzero;stroke:none;stroke-width:1.93620026"
         d="m 18280.17,6803.2576 18.256,-25.5322 c 1.554,1.1132 3.112,2.2497 4.658,3.4111 l -18.721,25.1473 c -1.389,-1.0158 -2.793,-2.0325 -4.193,-3.0262" />
      <path
         inkscape:connector-curvature="0"
         id="path270-6-9-7-4"
         style="display:inline;fill:#a13028;fill-opacity:1;fill-rule:nonzero;stroke:none;stroke-width:1.93620026"
         d="m 18225.88,6773.0782 12.003,-28.9715 c 1.787,0.7515 3.565,1.5006 5.348,2.2753 l -12.579,28.7524 c -1.585,-0.7009 -3.174,-1.3783 -4.772,-2.0562" />
      <path
         inkscape:connector-curvature="0"
         id="path272-5-0-9-8"
         style="display:inline;fill:#a13028;fill-opacity:1;fill-rule:nonzero;stroke:none;stroke-width:1.93620026"
         d="m 18211.298,6767.5352 10.364,-29.5989 c 1.814,0.6293 3.627,1.2587 5.438,1.936 l -10.888,29.4305 c -1.636,-0.6294 -3.276,-1.21 -4.914,-1.7676" />
      <path
         inkscape:connector-curvature="0"
         id="path274-6-7-7-0"
         style="display:inline;fill:#a13028;fill-opacity:1;fill-rule:nonzero;stroke:none;stroke-width:1.93620026"
         d="m 18166.082,6755.9429 5.179,-30.9305 c 1.897,0.3385 3.803,0.6524 5.685,1.0159 l -5.746,30.809 c -1.709,-0.29 -3.417,-0.6037 -5.118,-0.8944" />
      <path
         inkscape:connector-curvature="0"
         id="path276-3-2-3-2"
         style="display:inline;fill:#a13028;fill-opacity:1;fill-rule:nonzero;stroke:none;stroke-width:1.93620026"
         d="m 18181.367,6758.9442 6.92,-30.5924 c 1.88,0.4359 3.749,0.8718 5.617,1.3304 l -7.471,30.472 c -1.685,-0.4122 -3.375,-0.8227 -5.066,-1.21" />
      <path
         inkscape:connector-curvature="0"
         id="path278-9-9-5-2"
         style="display:inline;fill:#a13028;fill-opacity:1;fill-rule:nonzero;stroke:none;stroke-width:1.93620026"
         d="m 18196.444,6762.8162 8.664,-30.1566 c 1.844,0.5328 3.691,1.0885 5.535,1.6461 l -9.195,29.9863 c -1.666,-0.5072 -3.327,-1.0167 -5.004,-1.4758" />
      <path
         inkscape:connector-curvature="0"
         id="path280-4-1-3-0"
         style="display:inline;fill:#a13028;fill-opacity:1;fill-rule:nonzero;stroke:none;stroke-width:1.93620026"
         d="m 18151.621,6745.2686 2.444,-22.3377 c 1.909,0.2166 3.822,0.4355 5.735,0.7006 l -2.998,23.3567 c -1.641,-0.8719 -3.395,-1.4041 -5.181,-1.7196" />
      <path
         inkscape:connector-curvature="0"
         id="path282-8-8-8-5"
         style="display:inline;fill:#a13028;fill-opacity:1;fill-rule:nonzero;stroke:none;stroke-width:1.93620026"
         d="m 18140.481,6747.2782 c -2.041,1.1134 -3.794,2.566 -5.263,4.2345 l 1.552,-29.6469 c 1.932,0.097 3.861,0.1934 5.784,0.3386 l -1.797,24.9523 c -0.103,0.037 -0.192,0.077 -0.276,0.1158" />
      <path
         inkscape:connector-curvature="0"
         id="path284-1-4-0-1"
         style="display:inline;fill:#a13028;fill-opacity:1;fill-rule:nonzero;stroke:none;stroke-width:1.93620026"
         d="m 18117.786,6752.6747 h 5.55 v -32.1313 h -5.55 z" />
      <path
         inkscape:connector-curvature="0"
         id="path58-5"
         style="display:inline;fill:#a13028;fill-opacity:1;fill-rule:evenodd;stroke:none;stroke-width:0.63379186"
         d="m 18124.536,6829.3176 c -111.292,0 -202.645,89.4076 -202.645,198.7827 0,23.1576 4.516,46.3155 12.235,66.9023 3.856,-14.1594 8.998,-28.9523 14.792,-41.82 v -1.2852 l 1.285,-0.6395 v -1.2852 c 10.937,-23.8042 24.444,-46.3226 39.882,-66.9093 0.647,-5.7877 0.647,-10.9427 0.647,-16.7305 0,-11.569 17.376,-14.1398 30.877,-21.2192 3.856,-4.5162 8.365,-8.3722 12.221,-12.2288 3.217,-11.5753 -9.004,-31.523 -16.73,-43.0985 29.597,-22.5185 66.902,-36.0188 107.436,-36.0188 6.434,0 12.861,0 18.01,0.6462 1.931,-0.6462 3.857,-1.2921 5.795,-1.9382 11.568,-5.7941 23.151,-10.2899 36.018,-14.1465 -18.649,-5.7877 -38.596,-9.0115 -59.823,-9.0115 v 0" />
      <path
         inkscape:connector-curvature="0"
         id="path60-4"
         style="display:inline;fill:#a13028;fill-opacity:1;fill-rule:evenodd;stroke:none;stroke-width:0.63379186"
         d="m 17999.736,7183.7576 c 10.297,7.7395 21.234,14.8124 32.169,20.5932 12.222,2.5709 25.729,1.9252 36.665,0.6396 1.932,-0.6396 4.503,-0.6396 6.427,-1.2852 l -10.29,-9.6373 h 5.795 c -23.158,-7.7266 -44.39,-19.9476 -62.394,-35.393 v 0 c 14.147,7.7328 31.51,10.9427 46.962,9.0181 32.149,-4.5091 -25.096,-30.2379 3.21,-44.3908 27.653,-13.5202 30.87,-50.1785 21.873,-46.9616 -9.651,3.21 -31.524,-5.7813 -48.248,-17.3767 -7.725,11.5954 -14.159,22.5183 -20.587,34.1003 -12.867,24.4433 -25.089,59.8228 -13.507,86.8434 0.64,1.2792 1.286,3.2039 1.925,3.85 v 0" />
      <path
         inkscape:connector-curvature="0"
         id="path62-4"
         style="display:inline;fill:#a13028;fill-opacity:1;fill-rule:evenodd;stroke:none;stroke-width:0.63379186"
         d="m 18138.677,7226.2231 c 104.858,-7.0665 188.492,-92.6375 189.131,-197.4836 h -25.09 c 0,8.3521 -1.284,16.7242 -2.564,25.0898 v 0 c -3.862,-14.806 -10.942,-29.5854 -27.02,-40.5347 -10.936,-7.7127 -19.302,-40.528 -12.862,-51.4643 3.856,-6.4205 14.148,-11.5686 21.86,-14.7919 9.651,18.0088 16.737,38.5958 19.302,60.4683 v -45.0304 l 10.935,10.2903 c 1.292,-5.1551 1.932,-9.6507 2.571,-14.7923 -9.65,-23.7973 -23.157,-45.676 -40.52,-63.6857 -19.948,-1.2917 -43.099,5.7882 -58.537,12.2285 -7.727,3.2104 -15.439,6.4268 -22.519,10.2833 15.439,11.5891 30.244,25.0892 36.671,28.3133 8.365,4.4955 19.296,40.5205 17.37,55.3267 -2.571,14.7788 -28.306,32.1556 -21.872,46.9544 6.427,14.786 -4.503,32.1563 -4.503,32.1563 0,0 -10.942,48.8928 -17.369,54.674 -6.428,6.4405 -45.676,23.8101 -36.672,34.7536 8.372,10.2835 34.739,-2.571 61.115,-9.0183 5.78,-1.2855 12.221,-3.2169 18.662,-5.7876 -30.245,28.2991 -70.765,46.3219 -115.156,47.6071 l 7.067,7.0804 v 17.3628" />
      <path
         inkscape:connector-curvature="0"
         id="path134-3-8"
         style="display:inline;fill:#a13028;fill-opacity:1;fill-rule:evenodd;stroke:none;stroke-width:0.71696776"
         d="m 18297.932,7197.1179 v -0.7381 c 0,-0.7236 0,-0.7236 0,-0.7236 h -0.739 c 0,-0.7307 0,-0.7307 0,-1.4538 v 0 c 0,0 0,-0.7235 -0.746,-0.7235 v 0 l -0.7,-0.7308 v 0 c 0,0 0,0 0,-0.723 0,0 0,0 -0.754,0 v 0 c -0.7,-0.7307 -0.7,-0.7307 -0.7,-0.7307 v 0 c -0.762,0 -0.762,0 -0.762,0 0,-0.7238 -0.716,-0.7238 -1.447,-0.7238 v 0 c -0.73,0 -0.73,0 -0.73,0 h -0.724 c 0,0 0,0 -0.723,0 h -0.738 v 0 l -38.553,3.6318 c -4.355,0.7231 -8.002,4.362 -7.263,8.7551 0,4.3542 4.362,7.2631 8.717,6.5467 l 14.541,-1.4611 c -88.776,69.8425 -218.307,64.757 -299.806,-16.018 -42.923,-41.4693 -66.22,-96.7632 -66.22,-155.7353 0,-4.3701 -3.631,-7.2704 -7.993,-7.2704 -4.393,0 -8.017,2.9003 -8.017,7.2704 0,63.3262 25.466,122.2599 70.589,166.6677 45.131,45.0997 106.25,69.1123 170.277,69.1123 54.57,0 106.972,-17.4726 149.194,-50.209 l -3.631,10.1784 c -0.724,4.3858 1.454,8.7478 5.816,10.1943 0.724,0 1.455,0 2.178,0 3.632,0 6.547,-2.1774 7.27,-5.0856 l 11.664,-37.1064 c 0,-0.7461 0,-0.7461 0,-0.7461 v -0.731 c 0,-0.7308 0,-0.7308 0,-0.7308 0,0 0,0 0,-0.7157 v 0" />
      <path
         inkscape:connector-curvature="0"
         id="path168-0-9"
         style="display:inline;fill:#a13028;fill-opacity:1;fill-rule:evenodd;stroke:none;stroke-width:0.71696776"
         d="m 18295.747,6857.8605 c -45.854,-43.6461 -106.257,-68.3887 -170.306,-68.3887 -54.579,0 -106.974,17.4638 -149.166,50.9393 l 2.909,-10.9398 c 1.446,-4.3549 -0.73,-8.7175 -5.093,-9.4403 -4.362,-1.4546 -8.748,0.7228 -10.202,5.0854 l -10.17,36.3757 c -0.74,0 -0.74,0.7535 -0.74,0.7535 0,0 0,0 0,0.7004 v 1.4544 c 0,0.7613 0,0.7613 0,0.7613 v 0.6998 h 0.74 c 0,0.7467 0,0.7467 0,0.7467 0,0 0,0 0,0.7308 v 0 c 0,0 0.715,0 0.715,0.723 v 0 c 0,0 0,0 0,0.7236 v 0 c 0.73,0 0.73,0 0.73,0 0,0.7309 0,0.7309 0,0.7309 v 0 c 0.732,0 0.732,0.7307 0.732,0.7307 h 1.446 c 0,0.7231 0,0.7231 0,0.7231 0,0 0,0 0.731,0 v 0 c 0,0 0,0 0.731,0 v 0 c 0,0.7307 0,0.7307 0.715,0.7307 v 0 c 0,0 0,0 0.739,0 0,0 0,0 0.723,0 h 0.731 v 0 l 38.583,-4.362 c 5.086,-0.7308 7.263,-4.393 7.263,-8.7479 -0.723,-4.3699 -4.362,-7.2706 -8.717,-6.5473 l -14.571,1.4546 c 88.046,-69.8735 218.314,-64.0266 299.814,16.0181 42.945,41.4613 66.211,96.7777 66.211,154.9887 0,4.362 3.662,8.0163 8.017,8.0163 4.37,0 8.001,-3.6543 8.001,-8.0163 0,-62.5808 -25.466,-121.5212 -70.566,-166.6447 v 0" />
    </g>
  </g>
</svg>
