<?xml version="1.0" encoding="UTF-8" standalone="no"?>
<!-- Created with Inkscape (http://www.inkscape.org/) -->

<svg
   xmlns:dc="http://purl.org/dc/elements/1.1/"
   xmlns:cc="http://creativecommons.org/ns#"
   xmlns:rdf="http://www.w3.org/1999/02/22-rdf-syntax-ns#"
   xmlns:svg="http://www.w3.org/2000/svg"
   xmlns="http://www.w3.org/2000/svg"
   xmlns:sodipodi="http://sodipodi.sourceforge.net/DTD/sodipodi-0.dtd"
   xmlns:inkscape="http://www.inkscape.org/namespaces/inkscape"
   width="100"
   height="100"
   viewBox="0 0 26.458333 26.458334"
   version="1.1"
   id="svg5205"
   inkscape:version="0.92.1 r15371"
   sodipodi:docname="boton_estatico_copy.svg">
  <defs
     id="defs5199" />
  <sodipodi:namedview
     id="base"
     pagecolor="#ffffff"
     bordercolor="#666666"
     borderopacity="1.0"
     inkscape:pageopacity="0.0"
     inkscape:pageshadow="2"
     inkscape:zoom="2.8"
     inkscape:cx="-0.29978404"
     inkscape:cy="89.722737"
     inkscape:document-units="mm"
     inkscape:current-layer="layer1"
     showgrid="false"
     units="px"
     inkscape:window-width="1920"
     inkscape:window-height="1051"
     inkscape:window-x="-9"
     inkscape:window-y="-9"
     inkscape:window-maximized="1" />
  <metadata
     id="metadata5202">
    <rdf:RDF>
      <cc:Work
         rdf:about="">
        <dc:format>image/svg+xml</dc:format>
        <dc:type
           rdf:resource="http://purl.org/dc/dcmitype/StillImage" />
        <dc:title></dc:title>
      </cc:Work>
    </rdf:RDF>
  </metadata>
  <g
     inkscape:label="Layer 1"
     inkscape:groupmode="layer"
     id="layer1"
     transform="translate(0,-270.54165)">
    <path
       d="m 14.410726,273.17662 c 1.029631,0.11858 1.981306,0.35729 2.892386,0.75315 1.347101,0.51481 2.574835,1.34711 3.565896,2.33691 1.02963,0.99106 1.861506,2.17985 2.416547,3.52736 0.356039,0.87087 0.634163,1.82172 0.752714,2.81276 h 1.228552 c 0.514404,0 0.990203,0.43566 0.990203,0.95003 v 0.71419 c 0,0.55377 -0.475799,0.99064 -0.990203,0.99064 h -1.228552 c -0.118554,0.95004 -0.396675,1.90128 -0.752714,2.81194 -0.555041,1.30733 -1.386917,2.49654 -2.416547,3.48757 -0.991061,1.02879 -2.218795,1.82213 -3.565896,2.3759 -0.91108,0.35773 -1.862755,0.59562 -2.892386,0.71419 v 0.83144 c 0,0.51567 -0.435592,0.99025 -0.990203,0.99025 h -0.713367 c -0.555,0 -0.991023,-0.47458 -0.991023,-0.99025 v -0.83144 c -0.989814,-0.11858 -1.9804848,-0.35646 -2.8919557,-0.71419 -1.3475307,-0.55377 -2.5354476,-1.34711 -3.565076,-2.3759 -1.0308779,-0.99103 -1.8627559,-2.18024 -2.417796,-3.48757 -0.3560002,-0.91066 -0.633344,-1.8619 -0.752714,-2.81194 h -1.069405 c -0.55496206,0 -0.99102325,-0.43687 -0.99102325,-0.99064 v -0.71419 c 0,-0.51437 0.43606119,-0.95003 0.99102325,-0.95003 h 1.069405 c 0.1193696,-0.99104 0.3967138,-1.94189 0.752714,-2.81276 0.5550401,-1.34751 1.3869181,-2.5363 2.417796,-3.52736 1.0296284,-0.9898 2.2175453,-1.8221 3.565076,-2.33691 0.9114709,-0.39586 1.9021417,-0.63461 2.8919557,-0.75315 v -1.10879 c 0,-0.55541 0.436023,-0.99063 0.991023,-0.99063 h 0.713367 c 0.554611,0 0.990203,0.43522 0.990203,0.99063 z m 2.85257,11.0944 v -0.71419 c 0,-0.51437 0.435671,-0.95003 0.990671,-0.95003 h 3.565468 c -0.118517,-0.71376 -0.276875,-1.3869 -0.554572,-1.98169 -0.435241,-1.06856 -1.109181,-2.02025 -1.941918,-2.853 -0.831058,-0.79164 -1.782304,-1.42625 -2.85214,-1.86147 -0.633774,-0.27728 -1.34714,-0.43562 -2.060079,-0.55418 v 3.56507 c 0,0.51436 -0.435592,0.95085 -0.990203,0.95085 h -0.713367 c -0.555,0 -0.991023,-0.43649 -0.991023,-0.95085 v -3.56507 c -0.712118,0.11858 -1.386527,0.2769 -2.0198713,0.55418 -1.1095732,0.43522 -2.0604293,1.06983 -2.8923453,1.86147 -0.8326981,0.83275 -1.4656526,1.78444 -1.9414904,2.853 -0.2379182,0.59479 -0.4364507,1.26793 -0.5550004,1.98169 h 3.7242219 c 0.555041,0 0.9910631,0.43566 0.9910631,0.95003 v 0.71419 c 0,0.55377 -0.4360221,0.99064 -0.9910631,0.99064 H 4.3074256 c 0.1185502,0.67272 0.3170822,1.34545 0.5550004,1.9809 0.4758378,1.06857 1.1087923,2.01983 1.9414904,2.81274 0.831916,0.79173 1.7827721,1.46609 2.8923453,1.90175 0.6333443,0.23709 1.3077533,0.43478 2.0198713,0.55415 v -3.88216 c 0,-0.51603 0.436023,-0.95125 0.991023,-0.95125 h 0.713367 c 0.554611,0 0.990203,0.43522 0.990203,0.95125 v 3.88216 c 0.712939,-0.11943 1.426305,-0.31706 2.060079,-0.55415 1.069836,-0.43566 2.021082,-1.11002 2.85214,-1.90175 0.832737,-0.79291 1.506677,-1.74417 1.941918,-2.81274 0.277697,-0.63545 0.436061,-1.30818 0.554572,-1.9809 h -3.565468 c -0.555,0 -0.990671,-0.43687 -0.990671,-0.99064 v 0"
       style="display:inline;fill:#f9d47a;fill-opacity:1;fill-rule:evenodd;stroke:none;stroke-width:0.03903511"
       id="path122-1"
       inkscape:connector-curvature="0" />
  </g>
</svg>
